<svg width="538" height="690" viewBox="0 0 538 690" fill="none" xmlns="http://www.w3.org/2000/svg">
<g filter="url(#filter0_d_1_126)">
<rect width="530" height="682" transform="translate(4)" fill="white"/>
<path d="M106.429 90.5547C109.081 90.5547 111.036 91.8809 111.036 93.8906C111.036 95.7432 109.443 96.9805 107.181 97.1992V99.4688H112.103V100.713H100.81V99.4688H105.677V97.1992C103.428 96.9805 101.835 95.7432 101.849 93.8906C101.835 91.8809 103.79 90.5547 106.429 90.5547ZM106.429 91.7852C104.624 91.7715 103.325 92.5918 103.339 93.8906C103.325 95.2305 104.624 96.0234 106.429 96.0234C108.261 96.0234 109.546 95.2305 109.546 93.8906C109.546 92.5918 108.261 91.7715 106.429 91.7852ZM124.188 96.5977V97.8145H112.896V96.5977H124.188ZM123.067 100.74V101.971H114.345V98.5938H115.876V100.74H123.067ZM122.794 90.1855V93.4805H115.835V94.5332H123.04V95.6816H114.331V92.3867H121.276V91.375H114.29V90.1855H122.794ZM129.001 91.5801C129.001 92.2158 129.568 93.002 130.642 93.4258C131.688 93.0156 132.241 92.2363 132.241 91.5801V91.5254H130.874V90.2949H135.495V91.5254H133.786V91.6211C133.786 92.4688 134.524 93.3984 136.015 93.7539L135.358 94.8613C134.148 94.5469 133.362 93.8633 132.966 93.0293C132.542 93.7744 131.783 94.417 130.628 94.6973C129.479 94.3965 128.714 93.7471 128.304 93.002C127.9 93.8359 127.114 94.54 125.911 94.8613L125.269 93.7539C126.718 93.3848 127.497 92.4141 127.497 91.6211V91.5254H125.747V90.2949H130.382V91.5254H129.001V91.5801ZM136.274 95.8457V97.0625H125.009V95.8457H129.876V94.752H131.38V95.8457H136.274ZM134.894 98.1562V102.217H133.362V99.373H126.226V98.1562H134.894ZM147.772 89.8574V102.217H146.31V89.8574H147.772ZM145.229 90.0762V101.615H143.78V95.7363H142.604C142.461 98.1426 141.429 99.6328 139.897 99.6191C138.284 99.6328 137.231 97.9238 137.231 95.2031C137.231 92.4824 138.284 90.8008 139.897 90.8008C141.395 90.8008 142.413 92.1953 142.591 94.5059H143.78V90.0762H145.229ZM139.897 92.2363C139.118 92.2227 138.626 93.2754 138.64 95.2031C138.626 97.1309 139.118 98.1836 139.897 98.1699C140.718 98.1836 141.21 97.1309 141.21 95.2031C141.21 93.2754 140.718 92.2227 139.897 92.2363ZM153.774 92.8242C153.774 95.1211 154.868 97.377 156.837 98.2383L155.921 99.4551C154.52 98.7715 153.535 97.459 153.009 95.8457C152.469 97.5479 151.464 98.9629 150.042 99.6875L149.085 98.457C151.095 97.5137 152.216 95.1348 152.229 92.8242V90.8555H153.774V92.8242ZM159.571 89.8574V102.23H158.067V95.0801H155.47V93.8496H158.067V89.8574H159.571ZM168.403 93.6172C168.403 95.5039 169.183 97.4453 170.933 98.3613L170.071 99.4824C168.916 98.8809 168.144 97.8008 167.706 96.502C167.269 97.8965 166.489 99.0928 165.327 99.7559L164.452 98.6348C166.175 97.623 166.968 95.5723 166.968 93.6172V93.2754H164.808V92.0312H166.968V90.2949H168.403V92.0312H170.536V93.2754H168.403V93.6172ZM175.349 89.8574V102.217H173.899V95.9551H172.628V101.615H171.192V90.0762H172.628V94.6973H173.899V89.8574H175.349ZM183.388 90.7461V91.9492H178.958V93.125H183.032V94.3145H178.958V95.5039C181.269 95.5176 182.677 95.4834 184.304 95.2031L184.454 96.4062C182.677 96.6934 181.132 96.748 178.466 96.7344H177.413V90.7461H183.388ZM187.024 89.8711V97.4043H185.493V89.8711H187.024ZM182.854 97.582C185.452 97.582 187.079 98.4297 187.079 99.8926C187.079 101.355 185.452 102.203 182.854 102.203C180.216 102.203 178.616 101.355 178.63 99.8926C178.616 98.4297 180.216 97.582 182.854 97.582ZM182.854 98.7578C181.104 98.7578 180.134 99.168 180.147 99.8926C180.134 100.631 181.104 101.027 182.854 101.027C184.563 101.027 185.562 100.631 185.562 99.8926C185.562 99.168 184.563 98.7578 182.854 98.7578ZM194.448 90.0488C197.265 90.0488 198.892 90.8008 198.905 92.168C198.892 93.5488 197.265 94.2871 194.448 94.3008C191.632 94.2871 189.991 93.5488 189.991 92.168C189.991 90.8008 191.632 90.0488 194.448 90.0488ZM194.448 91.1699C192.562 91.1699 191.577 91.5254 191.591 92.168C191.577 92.8516 192.562 93.166 194.448 93.166C196.362 93.166 197.333 92.8516 197.333 92.168C197.333 91.5254 196.362 91.1699 194.448 91.1699ZM200.095 94.957V96.1738H188.829V94.957H200.095ZM198.687 97.0078V100.029H191.659V100.945H199.028V102.107H190.169V98.9492H197.196V98.1289H190.155V97.0078H198.687ZM208.927 92.8242C208.913 95.0938 210.103 97.3633 212.112 98.2246L211.21 99.4414C209.788 98.7852 208.742 97.4727 208.175 95.8594C207.607 97.6025 206.548 99.0244 205.044 99.7285L204.114 98.457C206.179 97.5684 207.382 95.2031 207.382 92.8242V90.8555H208.927V92.8242ZM214.532 89.8574V102.23H213.001V89.8574H214.532ZM220.78 92.0039C220.78 93.5215 221.765 95.0254 223.706 95.668L222.94 96.8438C221.56 96.3857 220.575 95.4561 220.042 94.3008C219.488 95.5654 218.463 96.5703 217.021 97.0625L216.214 95.8867C218.21 95.2305 219.249 93.6309 219.249 92.0039V91.8535H216.638V90.6367H223.351V91.8535H220.78V92.0039ZM226.099 89.8574V92.9473H227.821V94.2188H226.099V97.3086H224.581V89.8574H226.099ZM226.099 97.8828V102.217H224.581V99.0996H217.868V97.8828H226.099ZM238.13 89.8574V94.7793H240.03V96.0371H238.13V102.217H236.626V89.8574H238.13ZM235.669 91.7578V92.9746H228.382V91.7578H231.308V90.0352H232.825V91.7578H235.669ZM232.073 93.7812C233.851 93.7812 235.177 94.9844 235.177 96.6934C235.177 98.4023 233.851 99.5918 232.073 99.5918C230.269 99.5918 228.942 98.4023 228.956 96.6934C228.942 94.9844 230.269 93.7812 232.073 93.7812ZM232.073 95.0254C231.103 95.0254 230.405 95.6816 230.405 96.6934C230.405 97.7051 231.103 98.3477 232.073 98.334C233.017 98.3477 233.714 97.7051 233.728 96.6934C233.714 95.6816 233.017 95.0254 232.073 95.0254ZM250.64 90.9922V92.1816C250.626 93.7129 250.626 95.4355 250.147 98.0195L248.616 97.8555C249.095 95.4492 249.095 93.6924 249.108 92.209H241.726V90.9922H250.64ZM251.815 99.373V100.617H240.55V99.373H244.706V95.0801H246.21V99.373H251.815ZM260.347 91.8262C260.347 93.3848 261.358 94.8477 263.259 95.4492L262.438 96.6387C261.105 96.1875 260.148 95.2852 259.622 94.1367C259.075 95.4492 258.077 96.4814 256.655 96.9805L255.835 95.791C257.831 95.0938 258.815 93.4531 258.829 91.6895V90.5137H260.347V91.8262ZM265.72 89.8574V92.8652H267.442V94.123H265.72V97.2539H264.202V89.8574H265.72ZM261.7 97.5273C264.257 97.5137 265.829 98.3887 265.843 99.8516C265.829 101.342 264.257 102.203 261.7 102.203C259.116 102.203 257.517 101.342 257.517 99.8516C257.517 98.3887 259.116 97.5137 261.7 97.5273ZM261.7 98.7168C260.005 98.7168 259.034 99.127 259.034 99.8516C259.034 100.617 260.005 101 261.7 101C263.396 101 264.339 100.617 264.339 99.8516C264.339 99.127 263.396 98.7168 261.7 98.7168ZM271.927 93.0977C271.927 95.0938 272.624 97.1719 274.292 98.2246L273.458 99.3867C272.344 98.7168 271.619 97.5615 271.216 96.2012C270.765 97.6982 269.972 98.9629 268.81 99.6738L267.866 98.5391C269.657 97.4453 270.464 95.2715 270.464 93.166V90.9512H271.927V93.0977ZM278.735 89.8574V102.217H277.272V89.8574H278.735ZM276.165 90.0762V101.615H274.729V95.3672H272.966V94.1094H274.729V90.0762H276.165ZM290.903 89.8574V102.217H289.454V89.8574H290.903ZM288.442 90.1172V101.602H286.993V95.7773H285.626V94.4238H286.993V90.1172H288.442ZM285.94 91.3203V92.5508H285.065V97.8828C285.455 97.8486 285.824 97.8076 286.173 97.7598L286.269 98.8672C284.327 99.2637 281.784 99.3047 280.212 99.3047L280.034 98.0469L281.155 98.0332V92.5508H280.28V91.3203H285.94ZM282.522 98.0059L283.671 97.9648V92.5508H282.522V98.0059ZM302.552 89.8574V102.23H301.021V89.8574H302.552ZM295.894 90.7598C297.753 90.7598 299.106 92.4551 299.12 95.1211C299.106 97.8145 297.753 99.4961 295.894 99.4961C294.021 99.4961 292.667 97.8145 292.667 95.1211C292.667 92.4551 294.021 90.7598 295.894 90.7598ZM295.894 92.127C294.841 92.127 294.13 93.2344 294.13 95.1211C294.13 97.0215 294.841 98.1289 295.894 98.1289C296.933 98.1289 297.644 97.0215 297.644 95.1211C297.644 93.2344 296.933 92.127 295.894 92.127ZM309.032 93.3711C309.032 95.3945 310.222 97.5273 312.218 98.3613L311.384 99.5645C309.921 98.9355 308.854 97.6367 308.294 96.0645C307.72 97.7598 306.64 99.1816 305.19 99.8652L304.315 98.6758C306.271 97.7734 307.487 95.4766 307.487 93.3711V92.332H304.767V91.0742H311.739V92.332H309.032V93.3711ZM314.651 89.8574V102.217H313.12V89.8574H314.651ZM330.114 89.8574V102.217H328.583V89.8574H330.114ZM326.423 91.1699C326.423 94.8477 325.001 97.9785 320.667 100.029L319.874 98.8125C323.107 97.2744 324.611 95.1826 324.878 92.373H320.503V91.1699H326.423ZM339.644 90.8418V91.9629H332.329V90.8418H335.214V89.7891H336.731V90.8418H339.644ZM335.993 92.3184C337.798 92.3047 339.028 93.0293 339.028 94.1777C339.028 95.1484 338.126 95.7979 336.731 95.9688V96.625C337.777 96.5771 338.823 96.4883 339.808 96.3652L339.917 97.4043C337.265 97.8555 334.339 97.8965 332.151 97.8965L331.946 96.7207C332.931 96.7275 334.052 96.7207 335.214 96.6797V95.9551C333.812 95.791 332.931 95.1416 332.944 94.1777C332.931 93.0293 334.147 92.3047 335.993 92.3184ZM335.993 93.3438C335.022 93.3301 334.394 93.6309 334.407 94.1777C334.394 94.6836 335.022 94.9844 335.993 94.9707C336.937 94.9844 337.565 94.6836 337.579 94.1777C337.565 93.6309 336.937 93.3301 335.993 93.3438ZM342.2 89.8848V98.1973H340.669V89.8848H342.2ZM342.2 98.7031V102.217H340.669V99.8926H333.696V98.7031H342.2ZM349.61 90.0488C352.427 90.0488 354.054 90.8008 354.067 92.168C354.054 93.5488 352.427 94.2871 349.61 94.3008C346.794 94.2871 345.153 93.5488 345.153 92.168C345.153 90.8008 346.794 90.0488 349.61 90.0488ZM349.61 91.1699C347.724 91.1699 346.739 91.5254 346.753 92.168C346.739 92.8516 347.724 93.166 349.61 93.166C351.524 93.166 352.495 92.8516 352.495 92.168C352.495 91.5254 351.524 91.1699 349.61 91.1699ZM355.257 94.957V96.1738H343.991V94.957H355.257ZM353.849 97.0078V100.029H346.821V100.945H354.19V102.107H345.331V98.9492H352.358V98.1289H345.317V97.0078H353.849ZM364.089 92.8242C364.075 95.0938 365.265 97.3633 367.274 98.2246L366.372 99.4414C364.95 98.7852 363.904 97.4727 363.337 95.8594C362.77 97.6025 361.71 99.0244 360.206 99.7285L359.276 98.457C361.341 97.5684 362.544 95.2031 362.544 92.8242V90.8555H364.089V92.8242ZM369.694 89.8574V102.23H368.163V89.8574H369.694ZM375.942 92.0039C375.942 93.5215 376.927 95.0254 378.868 95.668L378.103 96.8438C376.722 96.3857 375.737 95.4561 375.204 94.3008C374.65 95.5654 373.625 96.5703 372.183 97.0625L371.376 95.8867C373.372 95.2305 374.411 93.6309 374.411 92.0039V91.8535H371.8V90.6367H378.513V91.8535H375.942V92.0039ZM381.261 89.8574V92.9473H382.983V94.2188H381.261V97.3086H379.743V89.8574H381.261ZM381.261 97.8828V102.217H379.743V99.0996H373.03V97.8828H381.261ZM389.642 91.8262V93.043H383.585V91.8262H385.882V90.2129H387.386V91.8262H389.642ZM386.634 93.6992C388.206 93.6992 389.327 94.8887 389.327 96.5703C389.327 98.2793 388.206 99.4824 386.634 99.4824C385.075 99.4824 383.927 98.2793 383.94 96.5703C383.927 94.8887 385.075 93.6992 386.634 93.6992ZM386.634 94.957C385.827 94.957 385.267 95.5996 385.28 96.5703C385.267 97.5684 385.827 98.1973 386.634 98.1836C387.427 98.1973 387.987 97.5684 387.987 96.5703C387.987 95.5996 387.427 94.957 386.634 94.957ZM394.235 89.8574V102.217H392.786V96.1738H391.583V101.656H390.161V90.1172H391.583V94.9434H392.786V89.8574H394.235ZM407.005 99.4824V100.727H395.712V99.4824H400.579V97.0762H396.956V90.6777H398.474V92.7012H404.202V90.6777H405.72V97.0762H402.083V99.4824H407.005ZM398.474 95.8457H404.202V93.918H398.474V95.8457ZM411.667 93.0977C411.667 95.0938 412.364 97.1719 414.032 98.2246L413.198 99.3867C412.084 98.7168 411.359 97.5615 410.956 96.2012C410.505 97.6982 409.712 98.9629 408.55 99.6738L407.606 98.5391C409.397 97.4453 410.204 95.2715 410.204 93.166V90.9512H411.667V93.0977ZM418.476 89.8574V102.217H417.013V89.8574H418.476ZM415.905 90.0762V101.615H414.47V95.3672H412.706V94.1094H414.47V90.0762H415.905ZM431.204 99.4688V100.713H419.911V99.4688H422.522V96.3379C421.538 95.7773 420.943 94.8955 420.95 93.7949C420.937 91.8262 422.878 90.5273 425.53 90.5273C428.196 90.5273 430.138 91.8262 430.138 93.7949C430.138 94.875 429.563 95.7432 428.606 96.3105V99.4688H431.204ZM425.53 91.7305C423.685 91.7305 422.427 92.5098 422.44 93.7949C422.427 95.0664 423.685 95.8594 425.53 95.8594C427.376 95.8594 428.647 95.0664 428.647 93.7949C428.647 92.5098 427.376 91.7305 425.53 91.7305ZM424.026 99.4688H427.062V96.8848C426.59 96.9941 426.077 97.0488 425.53 97.0488C424.997 97.0488 424.491 96.9941 424.026 96.8984V99.4688Z" fill="#A7A7A7"/>
<g opacity="0.5">
<rect width="278.885" height="442" transform="translate(130 132)" fill="#E4E4E4"/>
<path d="M227.392 220.112V224.24H228.977V218.701H231.067V233.594H228.977V226.017H227.392V230.336H221.086V220.112H227.392ZM223.159 221.871V228.595H225.319V221.871H223.159ZM234.376 218.475V234.325H232.251V218.475H234.376ZM249.32 218.492V229.884H247.091V218.492H249.32ZM249.738 232.27V234.046H238.696V228.734H240.942V232.27H249.738ZM240.629 219.503C243.067 219.503 244.966 221.175 244.966 223.491C244.966 225.86 243.067 227.515 240.629 227.515C238.19 227.515 236.292 225.86 236.292 223.491C236.292 221.175 238.19 219.503 240.629 219.503ZM240.629 221.436C239.392 221.419 238.452 222.202 238.469 223.491C238.452 224.815 239.392 225.581 240.629 225.581C241.831 225.581 242.771 224.815 242.771 223.491C242.771 222.202 241.831 221.419 240.629 221.436ZM263.847 219.99C263.829 224.885 262.645 228.96 256.723 231.921L255.504 230.249C258.151 228.934 259.727 227.463 260.624 225.703L255.939 226.139L255.66 224.24L261.304 223.892C261.46 223.23 261.574 222.516 261.635 221.767H256.496V219.99H263.847ZM268.079 218.475V224.554H270.326V226.383H268.079V234.29H265.85V218.475H268.079ZM284.312 218.475V234.325H282.065V218.475H284.312ZM280.359 219.938V221.715H278.948V228.595C279.644 228.551 280.332 228.481 281.003 228.403L281.107 230.058C277.728 230.615 274.071 230.667 271.162 230.685L270.953 228.873L272.782 228.856V221.715H271.388V219.938H280.359ZM274.942 228.804L276.788 228.734V221.715H274.942V228.804ZM305.004 226.313V228.072H299.03V230.807H296.836V228.072H290.496V226.313H305.004ZM303.141 219.172V225.007H292.307V219.172H303.141ZM294.484 220.896V223.282H300.964V220.896H294.484ZM303.402 232.27V234.046H292.203V229.431H294.415V232.27H303.402ZM318.695 219.398V220.826C318.695 222.307 318.695 223.927 318.294 226.139H320.384V227.933H314.201V234.342H311.972V227.933H305.928V226.139H316.047C316.448 224.092 316.483 222.542 316.483 221.175H307.582V219.398H318.695Z" fill="#101010"/>
<path d="M226.982 197.929V200.133H228.265V197.121H228.977V204.959H228.265V200.75H226.982V203.116H223.752V197.929H226.982ZM224.455 198.527V202.518H226.279V198.527H224.455ZM230.678 196.941V205.387H229.956V196.941H230.678ZM238.82 196.95V203.126H238.079V196.95H238.82ZM239.086 204.579V205.206H233.367V202.499H234.108V204.579H239.086ZM234.26 197.539C235.523 197.539 236.473 198.394 236.473 199.61C236.473 200.845 235.523 201.691 234.26 201.691C232.996 201.691 232.046 200.845 232.046 199.61C232.046 198.394 232.996 197.539 234.26 197.539ZM234.26 198.195C233.405 198.195 232.768 198.784 232.778 199.61C232.768 200.456 233.405 201.035 234.26 201.035C235.096 201.035 235.742 200.456 235.742 199.61C235.742 198.784 235.096 198.195 234.26 198.195ZM247.028 197.71V198.337H243.817V200.085H246.838V200.693H243.817V202.736C245.337 202.736 246.406 202.674 247.674 202.461L247.76 203.078C246.439 203.297 245.328 203.344 243.732 203.354H243.067V197.71H247.028ZM249.232 196.941V200.342H250.648V200.978H249.232V205.387H248.491V196.941H249.232ZM258.068 196.941V205.406H257.317V196.941H258.068ZM253.574 197.596C254.828 197.606 255.731 198.746 255.731 200.541C255.731 202.337 254.828 203.477 253.574 203.477C252.311 203.477 251.418 202.337 251.418 200.541C251.418 198.746 252.311 197.606 253.574 197.596ZM253.574 198.261C252.729 198.271 252.14 199.164 252.14 200.541C252.14 201.919 252.729 202.812 253.574 202.812C254.42 202.812 255.009 201.919 255.009 200.541C255.009 199.164 254.42 198.271 253.574 198.261ZM266.295 199.658V200.199H260.529V197.159H266.248V197.701H261.279V198.394H266.02V198.917H261.279V199.658H266.295ZM267.207 200.845V201.444H259.522V200.845H267.207ZM266.219 202.09V203.914H261.203V204.731H266.476V205.292H260.462V203.382H265.488V202.641H260.443V202.09H266.219ZM275.159 196.941V205.387H274.437V196.941H275.159ZM273.459 197.121V204.959H272.746V200.855H271.663C271.582 202.499 270.884 203.525 269.839 203.525C268.737 203.525 268.025 202.385 268.025 200.589C268.025 198.793 268.737 197.653 269.839 197.653C270.865 197.653 271.559 198.646 271.654 200.237H272.746V197.121H273.459ZM269.839 198.356C269.155 198.356 268.718 199.211 268.728 200.589C268.718 201.957 269.155 202.822 269.839 202.812C270.523 202.822 270.96 201.957 270.96 200.589C270.96 199.211 270.523 198.356 269.839 198.356ZM285.99 196.941V205.387H285.277V200.959H284.033V204.95H283.349V197.131H284.033V200.342H285.277V196.941H285.99ZM282.247 197.976V198.594H279.824V202.66C280.988 202.655 281.796 202.613 282.731 202.423L282.798 203.05C281.781 203.259 280.917 203.297 279.625 203.297H279.083V197.976H282.247ZM293.78 196.95V199.734H295.054V200.361H293.78V203.278H293.039V196.95H293.78ZM292.232 197.986V198.594H287.197V197.986H289.344V196.95H290.085V197.986H292.232ZM289.714 199.059C290.921 199.059 291.738 199.677 291.747 200.636C291.738 201.587 290.921 202.195 289.714 202.195C288.498 202.195 287.672 201.587 287.681 200.636C287.672 199.677 288.498 199.059 289.714 199.059ZM289.714 199.648C288.916 199.648 288.384 200.038 288.394 200.636C288.384 201.235 288.916 201.615 289.714 201.606C290.503 201.615 291.035 201.235 291.044 200.636C291.035 200.038 290.503 199.648 289.714 199.648ZM294.17 204.579V205.206H288.498V202.774H289.23V204.579H294.17ZM305.029 196.941V201.311H304.279V199.116H302.397V198.499H304.279V196.941H305.029ZM305.029 201.739V203.753H300.307V204.674H305.343V205.273H299.576V203.183H304.288V202.337H299.557V201.739H305.029ZM300.906 198.014C300.896 199.126 301.77 200.133 303.005 200.541L302.606 201.121C301.671 200.788 300.925 200.123 300.554 199.268C300.193 200.233 299.429 200.969 298.426 201.33L298.018 200.731C299.291 200.313 300.165 199.249 300.174 198.014V197.216H300.906V198.014ZM313.437 196.941V201.948H312.687V200.617H310.71V201.34H306.834V197.587H310.71V198.318H312.687V196.941H313.437ZM307.575 198.195V200.731H309.979V198.195H307.575ZM310.634 202.195C312.392 202.195 313.466 202.774 313.466 203.791C313.466 204.798 312.392 205.368 310.634 205.368C308.877 205.368 307.803 204.798 307.803 203.791C307.803 202.774 308.877 202.195 310.634 202.195ZM310.634 202.774C309.342 202.784 308.535 203.154 308.544 203.791C308.535 204.399 309.342 204.779 310.634 204.779C311.926 204.779 312.725 204.399 312.725 203.791C312.725 203.154 311.926 202.784 310.634 202.774ZM310.71 199.99H312.687V198.936H310.71V199.99Z" fill="#101010"/>
<g filter="url(#filter1_d_1_126)">
<path fill-rule="evenodd" clip-rule="evenodd" d="M204.243 266H334.601C335.461 266 336.286 266.342 336.894 266.95C337.502 267.558 337.844 268.383 337.844 269.243V503.156C337.844 504.016 337.502 504.84 336.894 505.449C336.286 506.057 335.461 506.398 334.601 506.398H204.243C203.383 506.398 202.558 506.057 201.95 505.449C201.342 504.84 201 504.016 201 503.156V269.243C201 268.383 201.342 267.558 201.95 266.95C202.558 266.342 203.383 266 204.243 266Z" fill="#9C9C9C"/>
</g>
<path d="M249.418 457.998V458.876H245.455V457.998H246.882V457.227H248.008V457.998H249.418ZM247.45 459.124C248.478 459.124 249.205 459.727 249.214 460.596C249.205 461.429 248.478 462.023 247.45 462.023C246.439 462.023 245.703 461.429 245.703 460.596C245.703 459.727 246.439 459.124 247.45 459.124ZM247.45 459.966C247.007 459.966 246.714 460.179 246.714 460.596C246.714 460.977 247.007 461.19 247.45 461.19C247.893 461.19 248.186 460.977 248.195 460.596C248.186 460.179 247.893 459.966 247.45 459.966ZM252.432 457.182V462.227H251.36V460.232H250.739V462.183H249.666V457.307H250.739V459.31H251.36V457.182H252.432ZM252.432 462.591V465.241H251.306V463.495H246.856V462.591H252.432ZM260.101 457.182V461.731H258.967V457.182H260.101ZM260.101 462.103V465.153H254.693V462.103H260.101ZM255.81 462.998V464.248H258.993V462.998H255.81ZM256.44 458.255C256.431 459.239 257.025 460.17 258.328 460.578L257.779 461.438C256.856 461.168 256.218 460.609 255.855 459.886C255.487 460.671 254.831 461.292 253.869 461.589L253.319 460.702C254.667 460.294 255.261 459.266 255.261 458.255V457.475H256.44V458.255ZM266.201 459.7C266.201 460.844 266.795 462.147 268.081 462.75L267.451 463.601C266.591 463.216 265.993 462.453 265.651 461.553C265.306 462.524 264.667 463.344 263.754 463.743L263.133 462.865C264.446 462.289 265.075 460.915 265.084 459.7V459.39H263.417V458.486H265.075V457.351H266.21V458.486H267.85V459.39H266.201V459.7ZM269.65 457.174V460.303H270.838V461.252H269.65V465.241H268.515V457.174H269.65ZM277.93 457.174V461.323H276.805V460.516H275.315V461.092H271.476V457.519H272.611V458.459H274.198V457.519H275.315V458.202H276.805V457.174H277.93ZM277.93 461.624V463.779H273.701V464.266H278.17V465.153H272.567V462.954H276.805V462.493H272.558V461.624H277.93ZM272.611 460.206H274.198V459.319H272.611V460.206ZM275.315 459.665H276.805V459.044H275.315V459.665ZM285.777 457.174V461.837H284.651V459.957H283.374V459.035H284.651V457.174H285.777ZM285.777 462.174V465.153H280.351V462.174H285.777ZM281.486 463.06V464.248H284.668V463.06H281.486ZM283.631 457.581V458.495H282.026C282.044 459.412 282.616 460.392 283.879 460.809L283.321 461.704C282.425 461.407 281.809 460.822 281.459 460.09C281.1 460.897 280.457 461.54 279.509 461.846L278.932 460.959C280.236 460.543 280.843 459.514 280.874 458.495H279.251V457.581H283.631ZM291.947 458.007V464.426H290.609V459.275H290.573L289.101 460.197V459.018L290.688 458.007H291.947Z" fill="white"/>
<path d="M248.961 478.139V479.016H244.998V478.139H246.425V477.367H247.551V478.139H248.961ZM246.993 479.265C248.021 479.265 248.748 479.868 248.757 480.736C248.748 481.57 248.021 482.164 246.993 482.164C245.982 482.164 245.246 481.57 245.246 480.736C245.246 479.868 245.982 479.265 246.993 479.265ZM246.993 480.107C246.549 480.107 246.257 480.32 246.257 480.736C246.257 481.118 246.549 481.33 246.993 481.33C247.436 481.33 247.729 481.118 247.737 480.736C247.729 480.32 247.436 480.107 246.993 480.107ZM251.975 477.323V482.368H250.902V480.373H250.282V482.323H249.209V477.447H250.282V479.451H250.902V477.323H251.975ZM251.975 482.731V485.382H250.849V483.635H246.399V482.731H251.975ZM259.644 477.323V481.871H258.509V477.323H259.644ZM259.644 482.244V485.293H254.236V482.244H259.644ZM255.353 483.139V484.389H258.536V483.139H255.353ZM255.983 478.396C255.974 479.38 256.568 480.311 257.871 480.719L257.321 481.579C256.399 481.308 255.761 480.75 255.397 480.027C255.029 480.812 254.373 481.432 253.411 481.729L252.862 480.843C254.209 480.435 254.803 479.407 254.803 478.396V477.616H255.983V478.396ZM265.744 479.841C265.744 480.985 266.338 482.288 267.623 482.891L266.994 483.742C266.134 483.356 265.535 482.594 265.194 481.694C264.848 482.665 264.21 483.485 263.297 483.884L262.676 483.006C263.988 482.43 264.618 481.056 264.627 479.841V479.531H262.96V478.626H264.618V477.492H265.753V478.626H267.393V479.531H265.744V479.841ZM269.193 477.314V480.444H270.381V481.392H269.193V485.382H268.058V477.314H269.193ZM277.473 477.314V481.463H276.347V480.657H274.858V481.233H271.019V477.66H272.154V478.6H273.741V477.66H274.858V478.343H276.347V477.314H277.473ZM277.473 481.765V483.919H273.244V484.407H277.713V485.293H272.109V483.095H276.347V482.634H272.101V481.765H277.473ZM272.154 480.346H273.741V479.46H272.154V480.346ZM274.858 479.805H276.347V479.185H274.858V479.805ZM285.319 477.314V481.978H284.194V480.098H282.917V479.176H284.194V477.314H285.319ZM285.319 482.314V485.293H279.894V482.314H285.319ZM281.028 483.201V484.389H284.211V483.201H281.028ZM283.174 477.722V478.635H281.569C281.587 479.553 282.159 480.532 283.422 480.949L282.864 481.845C281.968 481.548 281.352 480.962 281.002 480.231C280.643 481.038 280 481.681 279.051 481.986L278.475 481.1C279.778 480.683 280.386 479.655 280.417 478.635H278.794V477.722H283.174ZM288.724 484.566L288.715 483.6L291.02 481.481C291.623 480.905 291.942 480.55 291.942 480.045C291.942 479.477 291.508 479.123 290.923 479.123C290.32 479.123 289.93 479.504 289.93 480.116H288.662C288.653 478.857 289.584 478.059 290.94 478.059C292.315 478.059 293.228 478.839 293.228 479.956C293.228 480.683 292.873 481.286 291.552 482.483L290.577 483.432V483.467H293.316V484.566H288.724Z" fill="white"/>
<rect x="207.806" y="309.02" width="123.228" height="131.66" fill="#C4C4C4"/>
<path d="M262.098 284.831V297.799H260.374V284.831H262.098ZM259.448 285.045V297.201H257.737V290.745H256.027V289.277H257.737V285.045H259.448ZM254.987 288.308C254.987 290.46 255.657 292.641 257.552 293.724L256.483 295.063C255.329 294.379 254.567 293.218 254.132 291.828C253.683 293.339 252.899 294.621 251.709 295.348L250.612 294.009C252.522 292.84 253.234 290.503 253.234 288.308V287.61H251.111V286.156H256.954V287.61H254.987V288.308ZM275.323 290.902V292.341H270.307V293.453H273.912V297.657H264.863V293.453H268.497V292.341H263.495V290.902H275.323ZM274.268 285.187V286.641H272.573V288.622H274.183V290.075H264.621V288.622H266.217V286.641H264.535V285.187H274.268ZM266.658 294.864V296.203H272.131V294.864H266.658ZM268.041 288.622H270.748V286.641H268.041V288.622ZM287.037 284.831V292.427H285.227V290.774H282.805V291.714H276.648V285.786H282.805V286.726H285.227V284.831H287.037ZM278.458 287.225V290.275H281.023V287.225H278.458ZM282.605 292.769C285.37 292.769 287.066 293.695 287.08 295.291C287.066 296.887 285.37 297.799 282.605 297.799C279.84 297.799 278.145 296.887 278.145 295.291C278.145 293.695 279.84 292.769 282.605 292.769ZM282.605 294.151C280.881 294.151 279.954 294.522 279.954 295.291C279.954 296.032 280.881 296.417 282.605 296.417C284.329 296.417 285.27 296.032 285.27 295.291C285.27 294.522 284.329 294.151 282.605 294.151ZM282.805 289.306H285.227V288.166H282.805V289.306Z" fill="white"/>
<path d="M250.889 369.231V380.099H249.444V369.231H250.889ZM248.668 369.41V379.597H247.235V374.187H245.801V372.957H247.235V369.41H248.668ZM244.93 372.145C244.93 373.948 245.491 375.775 247.079 376.683L246.184 377.806C245.216 377.232 244.577 376.259 244.213 375.095C243.837 376.361 243.18 377.436 242.183 378.045L241.263 376.922C242.864 375.943 243.461 373.984 243.461 372.145V371.56H241.681V370.342H246.578V371.56H244.93V372.145ZM261.972 374.318V375.525H257.768V376.456H260.789V379.979H253.206V376.456H256.251V375.525H252.059V374.318H261.972ZM261.088 369.529V370.748H259.667V372.408H261.016V373.626H253.003V372.408H254.34V370.748H252.931V369.529H261.088ZM254.711 377.639V378.761H259.297V377.639H254.711ZM255.869 372.408H258.138V370.748H255.869V372.408ZM274.547 369.231V380.123H273.007V369.231H274.547ZM268.648 369.995C270.284 369.995 271.502 371.5 271.502 373.865C271.502 376.253 270.284 377.746 268.648 377.746C266.976 377.746 265.758 376.253 265.77 373.865C265.758 371.5 266.976 369.995 268.648 369.995ZM268.648 371.369C267.8 371.369 267.238 372.252 267.238 373.865C267.238 375.489 267.8 376.361 268.648 376.361C269.472 376.361 270.033 375.489 270.033 373.865C270.033 372.252 269.472 371.369 268.648 371.369ZM281.808 370.21V377.507H276.554V370.21H281.808ZM278.082 371.404V376.301H280.328V371.404H278.082ZM285.117 369.231V380.123H283.576V369.231H285.117ZM290.801 372.193C290.801 373.948 291.697 375.823 293.524 376.588L292.7 377.782C291.416 377.238 290.533 376.158 290.049 374.832C289.553 376.271 288.652 377.465 287.374 378.057L286.502 376.85C288.305 376.05 289.237 374.032 289.237 372.193V371.524H286.932V370.282H293.07V371.524H290.801V372.193ZM295.686 369.231V380.099H294.145V369.231H295.686Z" fill="#777777"/>
</g>
</g>
<defs>
<filter id="filter0_d_1_126" x="0" y="0" width="538" height="690" filterUnits="userSpaceOnUse" color-interpolation-filters="sRGB">
<feFlood flood-opacity="0" result="BackgroundImageFix"/>
<feColorMatrix in="SourceAlpha" type="matrix" values="0 0 0 0 0 0 0 0 0 0 0 0 0 0 0 0 0 0 127 0" result="hardAlpha"/>
<feOffset dy="4"/>
<feGaussianBlur stdDeviation="2"/>
<feComposite in2="hardAlpha" operator="out"/>
<feColorMatrix type="matrix" values="0 0 0 0 0 0 0 0 0 0 0 0 0 0 0 0 0 0 0.25 0"/>
<feBlend mode="normal" in2="BackgroundImageFix" result="effect1_dropShadow_1_126"/>
<feBlend mode="normal" in="SourceGraphic" in2="effect1_dropShadow_1_126" result="shape"/>
</filter>
<filter id="filter1_d_1_126" x="198.949" y="266" width="140.945" height="245.043" filterUnits="userSpaceOnUse" color-interpolation-filters="sRGB">
<feFlood flood-opacity="0" result="BackgroundImageFix"/>
<feColorMatrix in="SourceAlpha" type="matrix" values="0 0 0 0 0 0 0 0 0 0 0 0 0 0 0 0 0 0 127 0" result="hardAlpha"/>
<feOffset dy="2.59428"/>
<feGaussianBlur stdDeviation="1.02539"/>
<feColorMatrix type="matrix" values="0 0 0 0 0.192157 0 0 0 0 0.192157 0 0 0 0 0.192157 0 0 0 0.3 0"/>
<feBlend mode="normal" in2="BackgroundImageFix" result="effect1_dropShadow_1_126"/>
<feBlend mode="normal" in="SourceGraphic" in2="effect1_dropShadow_1_126" result="shape"/>
</filter>
</defs>
</svg>
