<svg width="147" height="39" viewBox="0 0 147 39" fill="none" xmlns="http://www.w3.org/2000/svg">
<path d="M49.9564 29H46.1433L46.3676 23.6168L46.3302 21.5234L42.2555 21.4486L38.5919 21.5234L38.5545 23.2804L38.7041 29H34.891L35.1153 23.6168L34.891 10.9813H38.7788L38.6293 18.3832L42.4798 18.4953L46.2928 18.3832L46.1433 10.9813H50.0312L49.8069 23.2804L49.9564 29ZM59.1665 15.729C61.1603 15.729 62.6556 16.2897 63.6525 17.4112C64.6494 18.5327 65.1478 20.19 65.1478 22.3832C65.1478 24.5763 64.5996 26.2835 63.503 27.5047C62.4313 28.7009 60.9111 29.2991 58.9422 29.2991C56.9983 29.2991 55.5154 28.7383 54.4936 27.6168C53.4968 26.4704 52.9983 24.8006 52.9983 22.6075C52.9983 20.4143 53.5341 18.7196 54.6058 17.5234C55.6774 16.3271 57.1977 15.729 59.1665 15.729ZM59.0544 18.2336C58.1572 18.2336 57.5092 18.5452 57.1105 19.1682C56.7117 19.7664 56.5123 20.8255 56.5123 22.3458C56.5123 23.866 56.7117 24.9875 57.1105 25.7103C57.5092 26.4081 58.1697 26.757 59.0918 26.757C60.0139 26.757 60.6743 26.4704 61.0731 25.8972C61.4718 25.324 61.6712 24.2773 61.6712 22.757C61.6712 21.2368 61.4594 20.1028 61.0357 19.3551C60.612 18.6075 59.9516 18.2336 59.0544 18.2336ZM72.9556 15.729C74.9494 15.729 76.4447 16.2897 77.4416 17.4112C78.4385 18.5327 78.9369 20.19 78.9369 22.3832C78.9369 24.5763 78.3886 26.2835 77.292 27.5047C76.2204 28.7009 74.7001 29.2991 72.7313 29.2991C70.7874 29.2991 69.3045 28.7383 68.2827 27.6168C67.2858 26.4704 66.7874 24.8006 66.7874 22.6075C66.7874 20.4143 67.3232 18.7196 68.3948 17.5234C69.4665 16.3271 70.9867 15.729 72.9556 15.729ZM72.8434 18.2336C71.9463 18.2336 71.2983 18.5452 70.8995 19.1682C70.5008 19.7664 70.3014 20.8255 70.3014 22.3458C70.3014 23.866 70.5008 24.9875 70.8995 25.7103C71.2983 26.4081 71.9587 26.757 72.8808 26.757C73.8029 26.757 74.4634 26.4704 74.8621 25.8972C75.2609 25.324 75.4603 24.2773 75.4603 22.757C75.4603 21.2368 75.2484 20.1028 74.8248 19.3551C74.4011 18.6075 73.7406 18.2336 72.8434 18.2336ZM85.2867 29H81.5858L81.7727 23.5794L81.6232 9.63551L85.3241 9.33645L85.0998 23.2804L85.2867 29ZM88.8755 21.8598C89.7976 23.3053 91.3054 25.4735 93.3989 28.3645V28.7757C92.7758 28.9003 91.6169 29.0748 89.9222 29.2991L89.5484 29.1121C87.8038 26.6449 86.3833 24.3396 85.2867 22.1963V21.9346L88.5391 17.3364L89.2119 15.9533H93.1372L88.8755 21.8598ZM100.049 15.729C101.719 15.729 102.965 16.053 103.788 16.7009C104.61 17.3489 105.021 18.2461 105.021 19.3925C105.021 19.7165 104.959 20.7757 104.834 22.5701C104.834 22.5701 104.797 23.5919 104.722 25.6355C104.722 25.9595 104.76 26.1838 104.834 26.3084C104.909 26.4081 105.059 26.4579 105.283 26.4579C105.507 26.4579 105.769 26.4206 106.068 26.3458L106.367 26.5701L105.993 28.514C105.395 28.8879 104.722 29.1246 103.975 29.2243C102.778 29.1246 102.056 28.4393 101.806 27.1682H101.62C100.672 28.1651 99.713 28.8629 98.741 29.2617C97.3952 29.2368 96.336 28.8754 95.5634 28.1776C94.7909 27.4798 94.4046 26.5452 94.4046 25.3738C94.4046 23.5545 95.3641 22.4579 97.2831 22.0841L101.582 21.2991V20.1402C101.582 18.919 101.009 18.3084 99.8625 18.3084C98.7161 18.3084 97.3703 18.8442 95.8251 19.9159L95.5261 19.7664L95.1148 17.2991C96.7597 16.2523 98.4046 15.729 100.049 15.729ZM98.5915 23.8037C98.0183 23.9283 97.7317 24.2773 97.7317 24.8505C97.7317 25.972 98.2176 26.5327 99.1896 26.5327C99.9123 26.5327 100.685 26.0966 101.507 25.2243L101.582 23.1308L98.5915 23.8037ZM115.73 15.8037C117.375 15.8037 118.633 16.3645 119.506 17.486C120.403 18.5826 120.851 20.2025 120.851 22.3458C120.851 24.4891 120.266 26.1838 119.094 27.4299C117.948 28.676 116.378 29.2991 114.384 29.2991C113.437 29.2991 112.39 29.0748 111.244 28.6262L109.263 29.3364L108.814 28.9626L109.038 23.6542L108.851 9.63551L112.552 9.33645L112.478 17.8224H112.59C113.612 16.8754 114.658 16.2025 115.73 15.8037ZM114.347 26.8692C116.341 26.8442 117.337 25.4984 117.337 22.8318C117.337 20.1402 116.502 18.8069 114.833 18.8318C114.06 18.8318 113.263 19.2056 112.44 19.9533L112.365 23.1682L112.44 26.3458C113.138 26.6698 113.774 26.8442 114.347 26.8692ZM127.123 29H123.422L123.609 23.5794L123.459 9.63551L127.16 9.33645L126.936 23.2804L127.123 29ZM133.195 22.9813C133.345 25.3489 134.491 26.5327 136.635 26.5327C137.856 26.5327 139.114 26.1838 140.41 25.486L140.709 25.7103L140.223 28.4393C138.927 28.9875 137.619 29.2741 136.298 29.2991C134.23 29.2991 132.622 28.7009 131.476 27.5047C130.329 26.3084 129.756 24.6636 129.756 22.5701C129.756 20.4517 130.329 18.7944 131.476 17.5981C132.647 16.3769 134.13 15.7664 135.924 15.7664C137.719 15.7664 139.052 16.2274 139.924 17.1495C140.822 18.0467 141.27 19.2928 141.27 20.8879C141.27 21.3863 141.233 21.8972 141.158 22.4206L140.597 22.9439L133.195 22.9813ZM136.036 18.1963C135.314 18.1963 134.703 18.433 134.205 18.9065C133.731 19.3801 133.42 20.053 133.27 20.9252L137.98 20.7757L138.055 20.4766C138.03 18.9564 137.357 18.1963 136.036 18.1963Z" fill="#22202A"/>
<path d="M9.76351 21.8315C9.75489 21.8908 9.71381 21.9766 9.70884 22.0466C9.69724 22.2092 9.65583 22.3706 9.63595 22.5442C9.58559 22.9875 9.54848 23.3884 9.48221 23.8586C9.46797 23.9586 9.43583 24.0464 9.4133 24.1279C9.40691 24.1511 9.4028 24.1747 9.40104 24.1985C9.38933 24.3659 9.36128 24.5185 9.31688 24.6561C9.30631 24.6887 9.29909 24.7222 9.29534 24.7561C9.28574 24.8416 9.28242 25.0063 9.25095 25.1338C9.21737 25.2697 9.19805 25.3797 9.19297 25.4638C9.18457 25.5999 9.18115 26.1001 9.18269 26.9644C9.18269 27.0191 9.17209 27.0854 9.16414 27.1201C9.16299 27.1274 9.16019 27.1343 9.15594 27.1404C9.1517 27.1464 9.14613 27.1513 9.13966 27.1549C9.13319 27.1584 9.126 27.1604 9.11864 27.1607C9.11128 27.161 9.10395 27.1596 9.09721 27.1566L9.01869 27.1211C9.01014 27.1174 9.00229 27.1122 8.9955 27.1059C8.90206 27.0189 8.79891 26.9452 8.68604 26.8849C8.66677 26.8744 8.64969 26.8605 8.63568 26.8438C8.56963 26.7656 8.48658 26.7037 8.38652 26.6579C8.29883 26.6182 8.21092 26.5663 8.12278 26.5022C8.07739 26.4691 8.05685 26.428 8.01312 26.4012C8.00793 26.398 8.00204 26.3962 7.99598 26.3959C7.98993 26.3957 7.9839 26.3969 7.97844 26.3995C7.97298 26.4022 7.96826 26.4061 7.96471 26.411C7.96116 26.4159 7.95889 26.4217 7.95812 26.4277C7.95149 26.4785 7.94442 26.5191 7.93691 26.5496C7.91803 26.6261 7.87197 26.6848 7.83619 26.7593C7.83531 26.7611 7.83453 26.763 7.83387 26.765L7.72221 27.1294C7.72177 27.131 7.72144 27.1325 7.72122 27.1341C7.69074 27.3073 7.65363 27.581 7.68775 27.8013C7.70167 27.8906 7.70973 27.9832 7.71194 28.0793C7.71282 28.1246 7.72729 28.1711 7.75534 28.2188C7.77765 28.2566 7.79809 28.3007 7.81664 28.351C7.92399 28.6421 8.00792 28.8631 8.06845 29.014C8.12775 29.1614 8.26062 29.2459 8.41932 29.3672C8.44693 29.3882 8.49972 29.4596 8.57769 29.5816C8.61723 29.643 8.69045 29.7024 8.79736 29.7598C9.03724 29.8886 9.31578 30.0297 9.63297 30.1832C9.69194 30.2117 9.77212 30.2412 9.83739 30.2522C10.311 30.333 10.5906 30.3755 10.6763 30.3797C11.0819 30.4003 11.5201 30.4005 11.991 30.3804C12.1212 30.3747 12.2514 30.335 12.3909 30.328C12.5749 30.3188 12.78 30.2866 13.0062 30.2316C13.0985 30.2091 13.183 30.1793 13.2597 30.1422C13.373 30.0875 13.4753 30.0716 13.5953 30.0129C13.6649 29.9789 13.7826 29.9297 13.9485 29.8652C13.9681 29.8575 13.9883 29.8516 14.0088 29.8476C14.1281 29.8253 14.2076 29.8007 14.2473 29.7737C14.3885 29.6772 14.5213 29.5913 14.6459 29.516C14.6589 29.508 14.6708 29.4987 14.6814 29.4881C14.7812 29.3881 14.9367 29.3004 15.1479 29.225C15.2316 29.195 15.3175 29.1231 15.4056 29.0094C15.4067 29.008 15.4079 29.0068 15.409 29.0057L15.5203 28.907C15.5635 28.8688 15.6101 28.8349 15.6594 28.8056C15.7915 28.7276 15.8763 28.6695 15.9139 28.6313C16.0511 28.4926 16.177 28.383 16.2916 28.3026C16.5139 28.1469 16.6455 27.968 16.827 27.8027C16.9907 27.6536 17.1239 27.4694 17.2677 27.3312C17.3245 27.2766 17.399 27.1888 17.4913 27.0678C17.5722 26.9618 17.7077 26.7974 17.8329 26.6772C17.9393 26.5751 18.0079 26.4204 18.0847 26.3024C18.0946 26.2873 18.1066 26.2734 18.1202 26.2613C18.2627 26.133 18.3824 25.9782 18.4794 25.7968C18.5503 25.6643 18.6109 25.545 18.71 25.4161C18.7817 25.3225 18.8521 25.2258 18.921 25.1262C18.9311 25.1115 18.9397 25.0957 18.9465 25.0792L19.0718 24.7707C19.0779 24.7555 19.0857 24.741 19.095 24.7273C19.1456 24.6531 19.2344 24.5726 19.2911 24.4791C19.4464 24.2238 19.5598 23.9847 19.6314 23.7618C19.6325 23.7585 19.634 23.7554 19.636 23.7525L19.8182 23.4915C19.8266 23.4798 19.834 23.4675 19.8404 23.4547L20.0922 22.963C20.0997 22.9482 20.1058 22.9329 20.1105 22.9173L20.1651 22.7304C20.1676 22.7218 20.1711 22.7135 20.1757 22.7056C20.3056 22.4798 20.4294 22.231 20.5472 21.9591C20.5631 21.9224 20.5836 21.8469 20.6088 21.7325C20.6158 21.7006 20.6272 21.6698 20.6426 21.641C20.7171 21.5002 20.7913 21.367 20.8314 21.2222C20.8383 21.1978 20.8477 21.1742 20.8596 21.152C20.9409 21.0007 20.9908 20.9097 21.0093 20.879C21.0206 20.8614 21.0293 20.8424 21.0352 20.8226L21.2671 20.0324C21.2682 20.0291 21.2696 20.0258 21.2711 20.0225C21.3581 19.8528 21.4063 19.7497 21.4156 19.713C21.4438 19.6021 21.4865 19.4767 21.5434 19.3366C21.5806 19.2459 21.5885 19.0898 21.6134 18.996C21.6785 18.7511 21.7387 18.5622 21.7939 18.4295C21.845 18.3067 21.8794 18.2049 21.8973 18.1243C21.9298 17.9789 22.0401 17.7201 22.0759 17.526C22.1137 17.3205 22.1402 17.2311 22.1438 17.1158C22.1491 16.9491 22.1955 16.7914 22.2034 16.6241C22.2127 16.4279 22.2684 16.2885 22.2787 16.0936C22.2952 15.7855 22.3373 15.486 22.3363 15.1735C22.3359 14.9615 22.3318 14.8202 22.324 14.7498C22.2946 14.4841 22.281 14.2468 22.2306 13.9722C22.2118 13.869 22.183 13.7141 22.1441 13.5073C22.1225 13.3913 22.0884 13.2807 22.0418 13.1753C21.9631 12.9979 21.9119 12.8855 21.888 12.838C21.8657 12.7939 21.806 12.7102 21.7088 12.5872C21.7 12.5762 21.6927 12.5641 21.6872 12.5511C21.6356 12.429 21.5943 12.3421 21.5633 12.2907C21.5443 12.2593 21.4604 12.1416 21.3115 11.9375C21.1403 11.7029 20.9793 11.5127 20.8284 11.3669C20.7628 11.3033 20.6687 11.244 20.5998 11.1754C20.4943 11.0701 20.3305 10.9167 20.1085 10.7152C20.0926 10.7009 20.0753 10.6883 20.0568 10.6775L19.6854 10.4631C19.6677 10.453 19.651 10.441 19.6353 10.4273C19.5088 10.3173 19.3978 10.1917 19.1934 10.1198C18.9979 10.0511 18.7965 9.95616 18.5894 9.8349C18.5768 9.82762 18.5648 9.81931 18.5536 9.81005C18.4743 9.74511 18.4104 9.70601 18.3621 9.69276C18.1938 9.6467 17.9691 9.60595 17.8054 9.54399C17.6795 9.49595 17.5848 9.48071 17.4549 9.42703C17.367 9.39059 17.2179 9.33437 17.0076 9.25839C16.864 9.20626 16.7105 9.16794 16.5471 9.14342C16.2988 9.10587 16.0691 9.07616 15.8579 9.05429C15.6677 9.03463 15.4368 9.02459 15.1651 9.02414C14.4919 9.02304 14.1023 9.02569 13.9965 9.03209C13.667 9.05175 13.3596 9.08632 13.0744 9.1358C12.9457 9.15811 12.8444 9.18274 12.7706 9.20969C12.6431 9.25607 12.5231 9.28092 12.3727 9.33857C12.0378 9.4669 11.8025 9.55095 11.6666 9.59071C11.4122 9.66471 11.2763 9.70612 11.2591 9.71496C11.249 9.72002 11.2394 9.72624 11.2306 9.73351C11.1608 9.7905 11.0891 9.83777 11.0156 9.87532C10.8387 9.96566 10.6458 10.057 10.4371 10.1493C10.2472 10.2331 10.0822 10.4346 9.91658 10.525C9.72529 10.6291 9.6143 10.6948 9.5836 10.7222C9.44135 10.8492 9.32781 10.9444 9.24299 11.0078C9.06275 11.1426 8.97065 11.2318 8.77881 11.3918C8.66351 11.4879 8.53495 11.6565 8.41269 11.7662C8.28878 11.8775 8.13339 12.0283 8.00947 12.1953C7.86634 12.3885 7.73425 12.5429 7.61321 12.6585C7.53766 12.7307 7.4862 12.796 7.45881 12.8543C7.43009 12.9166 7.39751 12.9946 7.36107 13.0885C7.33832 13.1475 7.29072 13.213 7.21827 13.285C7.15929 13.3437 7.10451 13.4299 7.05393 13.5434C6.99009 13.687 6.93907 13.8191 6.90086 13.9397C6.84818 14.106 6.80577 14.167 6.712 14.324C6.7001 14.3439 6.69022 14.3648 6.68251 14.3866C6.63811 14.5137 6.58444 14.6435 6.52149 14.7763C6.45887 14.9081 6.45555 15.0669 6.42938 15.2093C6.41988 15.2612 6.41005 15.3447 6.39989 15.4598C6.37604 15.7257 6.36102 15.9184 6.35483 16.0376C6.34003 16.325 6.33871 16.705 6.35086 17.1777C6.35439 17.3156 6.36091 17.4175 6.3704 17.4835C6.39525 17.6621 6.39625 17.8268 6.42839 18.0123C6.45058 18.1409 6.46284 18.3211 6.53772 18.4573C6.54455 18.4699 6.54999 18.4831 6.55396 18.4967C6.55396 18.497 6.55915 18.5219 6.56953 18.5716C6.58543 18.6495 6.63745 18.7306 6.65601 18.7969C6.66436 18.8266 6.67697 18.8549 6.69345 18.8811C6.75861 18.9836 6.81825 19.1052 6.87236 19.2459C6.93068 19.3966 6.98468 19.5066 7.03339 19.671C7.04708 19.7162 7.08574 19.7909 7.14935 19.8949C7.15728 19.9077 7.16649 19.9197 7.17685 19.9307C7.27271 20.0308 7.32926 20.1026 7.34649 20.1461C7.40326 20.289 7.45207 20.4077 7.49293 20.5022C7.49822 20.5139 7.50477 20.525 7.51248 20.5354C7.55445 20.5908 7.57753 20.6254 7.58173 20.6391C7.63253 20.8065 7.63231 20.9794 7.58107 21.1576C7.57733 21.1706 7.57175 21.1828 7.5645 21.1941C7.51061 21.2795 7.47604 21.3653 7.4608 21.4515C7.45842 21.4645 7.45245 21.4765 7.44357 21.4863C7.4069 21.5263 7.37388 21.552 7.3445 21.5635C7.2292 21.6094 7.10617 21.658 6.9754 21.7093C6.82001 21.7699 6.61824 21.7961 6.47113 21.7553C6.26173 21.6977 6.15007 21.6834 5.99236 21.6208C5.92941 21.5956 5.80019 21.5492 5.60471 21.4816C5.51558 21.4508 5.41652 21.3372 5.35224 21.2527C5.24986 21.1188 5.1011 21.0291 4.95167 20.9426C4.79727 20.8528 4.79263 20.6593 4.65414 20.5463C4.58721 20.4915 4.5247 20.4268 4.46661 20.3522C4.45872 20.3421 4.45255 20.3306 4.44839 20.3184C4.39847 20.1732 4.33916 20.0371 4.27046 19.9098C4.15815 19.7011 4.09917 19.5169 3.97061 19.328C3.96379 19.3179 3.95823 19.3071 3.95405 19.2959C3.85929 19.0359 3.80716 18.8637 3.79766 18.7794C3.77557 18.5834 3.74421 18.4001 3.70357 18.2294C3.62372 17.896 3.60682 17.7194 3.54917 17.4193C3.53238 17.3316 3.52189 17.222 3.51769 17.0906C3.50135 16.5695 3.50278 16.0529 3.522 15.5406C3.52465 15.4722 3.5421 15.3774 3.57435 15.2564C3.60549 15.1394 3.61411 15.0675 3.62935 14.9363C3.64658 14.7892 3.7029 14.6689 3.72643 14.5188C3.75691 14.3214 3.78375 14.1442 3.80694 13.9874C3.83543 13.7936 3.88778 13.6763 3.95372 13.4775C3.99414 13.3549 4.0826 13.2273 4.12468 13.1236C4.21922 12.8893 4.27643 12.7507 4.29631 12.7078C4.34833 12.5952 4.37649 12.3977 4.43083 12.3212C4.51145 12.2083 4.57694 12.1024 4.6273 12.0034C4.72692 11.8068 4.8282 11.61 4.93113 11.413C4.9552 11.3666 5.02136 11.2862 5.12959 11.1718C5.2926 10.9995 5.36052 10.7762 5.46986 10.6503C5.65474 10.4369 5.85155 10.2146 6.02748 9.97803C6.10148 9.87863 6.17724 9.79458 6.25477 9.72589C6.34092 9.64924 6.42596 9.56531 6.50989 9.47408C6.62166 9.35282 6.70537 9.267 6.76104 9.21664C6.80897 9.17335 6.95873 9.04888 7.21031 8.84324C7.3001 8.77002 7.39552 8.65372 7.48929 8.6027C7.7464 8.46222 7.89384 8.32107 8.07474 8.12261C8.08301 8.11347 8.09337 8.10653 8.10489 8.1024C8.33616 8.01691 8.45543 7.9977 8.58068 7.85622C8.61955 7.81227 8.68162 7.76665 8.76688 7.71938C8.9363 7.62529 9.10494 7.54952 9.27281 7.49209C9.34703 7.46658 9.4186 7.42484 9.46763 7.39137C9.68785 7.24051 9.88742 7.13404 10.0663 7.07197C10.1973 7.02625 10.3226 6.98859 10.4421 6.95899C10.4595 6.95458 10.4766 6.94848 10.4931 6.94077C10.6568 6.86423 10.7787 6.79068 10.9424 6.73866C11.0517 6.70398 11.1636 6.65627 11.278 6.59553C11.3215 6.57267 11.368 6.55616 11.4162 6.54649C11.548 6.51999 11.6716 6.47724 11.7975 6.462C11.9424 6.44477 12.1362 6.40844 12.379 6.353C12.534 6.31755 12.7014 6.32185 12.8597 6.25393C12.8771 6.24645 12.8954 6.241 12.9141 6.2377C13.0128 6.21914 13.1506 6.21318 13.2905 6.18435C13.5014 6.14062 13.6402 6.1193 13.7069 6.12041C13.8565 6.12262 14.0168 6.11411 14.188 6.0949C14.4149 6.06971 14.5747 6.05602 14.6675 6.05381C15.1671 6.04299 15.5537 6.05469 15.8274 6.08893C15.9452 6.10373 16.0736 6.11212 16.2128 6.11411C16.4007 6.11698 16.5706 6.14139 16.7223 6.18734C16.7451 6.19418 16.8525 6.20721 17.0447 6.22643C17.0716 6.22908 17.0982 6.23429 17.1242 6.242C17.2881 6.29038 17.4731 6.334 17.6792 6.37288C17.8387 6.40292 18.047 6.44411 18.3041 6.49646C18.4141 6.51877 18.5052 6.54649 18.5774 6.57962C18.6997 6.63529 18.8027 6.65881 18.9283 6.72905C19.1483 6.85208 19.3894 6.95303 19.6516 7.03188C19.7854 7.07197 19.8934 7.1177 20.0051 7.1664C20.0128 7.1697 20.02 7.17393 20.0266 7.17899L20.2496 7.34664C20.2516 7.34818 20.2537 7.34941 20.2559 7.35029C20.3175 7.37436 20.3875 7.41622 20.4656 7.47586C20.4835 7.4895 20.5028 7.50096 20.5233 7.50999C20.7165 7.59381 20.9527 7.68559 21.1177 7.84164C21.1963 7.91608 21.2578 7.96445 21.3022 7.98676C21.439 8.05524 21.5315 8.11432 21.5799 8.16402C21.7204 8.30804 21.8226 8.40291 21.8867 8.44863C22.0572 8.57078 22.1435 8.63252 22.1455 8.63384C22.2545 8.71203 22.328 8.83595 22.4453 8.92408C22.6037 9.04336 22.6955 9.10432 22.8008 9.24116C22.9317 9.41113 23.0944 9.55923 23.2246 9.7186C23.3622 9.88714 23.5025 10.0383 23.6454 10.1722C23.6586 10.1845 23.6699 10.1984 23.6792 10.2136C23.755 10.3392 23.8147 10.5125 23.9048 10.6099C23.9876 10.7 24.0357 10.7547 24.0489 10.7739C24.1996 10.9956 24.3089 11.2294 24.3769 11.4753C24.3825 11.4956 24.3901 11.5153 24.3998 11.5343C24.4525 11.636 24.5353 11.7367 24.5824 11.851C24.6731 12.0717 24.7417 12.2456 24.7818 12.4825C24.8173 12.6906 24.8869 12.8235 24.9134 13.0196C24.9235 13.0949 24.9518 13.181 24.9982 13.2777C25.0039 13.2896 25.0079 13.3023 25.0101 13.3155L25.0505 13.5447C25.0514 13.5489 25.0525 13.5531 25.0538 13.5573C25.0996 13.6996 25.1231 13.7947 25.1244 13.8426C25.1286 13.9897 25.1385 14.0865 25.1542 14.1328C25.1962 14.2552 25.2194 14.3691 25.2238 14.4744C25.2481 15.0324 25.2481 15.5929 25.2238 16.1559C25.2207 16.2242 25.2056 16.3154 25.1784 16.4296C25.1406 16.587 25.1344 16.6731 25.1208 16.8328C25.1088 16.9723 25.0532 17.1178 25.0336 17.2526C25.0098 17.4183 24.9409 17.6114 24.9137 17.7857C24.8961 17.898 24.8421 18.0064 24.8309 18.1054C24.8216 18.1872 24.7971 18.3572 24.7573 18.6157C24.7359 18.7551 24.708 18.8801 24.6738 18.9907C24.6179 19.1727 24.5777 19.2948 24.5532 19.3569C24.5247 19.4291 24.4819 19.5429 24.4247 19.6985C24.3229 19.9754 24.3173 20.316 24.2113 20.5549C24.1324 20.7319 24.091 20.8568 23.9966 21.0619C23.938 21.1889 23.8976 21.2911 23.8753 21.3687C23.8389 21.4949 23.7888 21.5807 23.7594 21.7109C23.7203 21.8817 23.6888 21.9902 23.6649 22.0366C23.5973 22.1672 23.548 22.281 23.5168 22.3782C23.5104 22.3982 23.5013 22.4173 23.4897 22.4349C23.4892 22.4355 23.4486 22.5056 23.3677 22.6449C23.2448 22.8563 23.1782 23.1065 23.1113 23.3506C23.1071 23.3654 23.1011 23.3795 23.0934 23.3927L22.8436 23.8158C22.842 23.8185 22.8407 23.8212 22.8396 23.8241L22.5947 24.4828C22.5932 24.487 22.591 24.4909 22.5881 24.4944C22.3635 24.7631 22.2038 25.1488 22.0679 25.4791C22.0622 25.4932 22.0552 25.5068 22.0471 25.5198C21.9917 25.609 21.8996 25.7074 21.836 25.8068C21.781 25.8925 21.7363 25.9693 21.7018 26.0374C21.6181 26.2017 21.5293 26.3718 21.4354 26.5476C21.4335 26.5516 21.431 26.5554 21.4281 26.5589L21.2373 26.7915C21.2294 26.8011 21.2229 26.812 21.2181 26.8236C21.1339 27.031 21.0942 27.1413 20.9315 27.3136C20.9196 27.3262 20.9089 27.34 20.8997 27.3547C20.8215 27.4782 20.7332 27.5938 20.635 27.7016C20.6222 27.7157 20.6115 27.7315 20.6031 27.7487C20.5645 27.8269 20.4962 27.9429 20.3984 28.0969C20.3723 28.1377 20.3272 28.1872 20.2629 28.2453C20.1838 28.3171 20.1242 28.4053 20.084 28.51C20.0359 28.6343 19.9117 28.7138 19.7791 28.8198C19.7732 28.8245 19.7679 28.8298 19.7632 28.8357L19.6466 28.9825C19.6455 28.9841 19.6445 28.9856 19.6436 28.9872C19.5749 29.1142 19.5152 29.1992 19.4644 29.2423C19.2762 29.402 19.1489 29.5287 19.0824 29.6223C18.9936 29.7471 18.9311 29.8224 18.8948 29.8483C18.8515 29.879 18.7844 29.9349 18.6934 30.0159C18.6225 30.0789 18.5655 30.1948 18.4856 30.2518C18.3222 30.3689 18.2313 30.4353 18.213 30.451C18.1178 30.5331 18.031 30.6311 17.9525 30.7448C17.9413 30.7612 17.9064 30.7906 17.8478 30.833C17.8362 30.8413 17.8237 30.8487 17.8107 30.8548C17.5924 30.9589 17.491 31.0599 17.3446 31.2153C17.3309 31.2296 17.3156 31.2421 17.2988 31.2524C17.1885 31.32 17.047 31.384 16.9384 31.483C16.8672 31.548 16.808 31.596 16.7608 31.6272C16.5719 31.7524 16.4235 31.8611 16.2071 31.9565C16.0556 32.0234 15.9117 32.1119 15.7754 32.2219C15.7631 32.2318 15.7497 32.2402 15.7356 32.2471C15.4832 32.3693 15.1976 32.4601 15.0737 32.5221C14.8066 32.6564 14.6355 32.7417 14.5604 32.7782C14.4449 32.8343 14.2891 32.8823 14.0929 32.9223C13.8672 32.968 13.7219 32.999 13.6569 33.0151C13.4435 33.0681 13.2682 33.1139 13.1308 33.1526C12.8399 33.2344 12.6043 33.2556 12.3213 33.3106C12.235 33.3274 12.1253 33.3375 11.9923 33.3408C11.595 33.3505 11.2344 33.3523 10.9106 33.3461C10.7281 33.3425 10.5502 33.3233 10.3768 33.2884C10.0044 33.2138 9.73822 33.1486 9.5783 33.0929C9.51269 33.07 9.47857 33.0583 9.47592 33.0578C9.30959 33.0174 9.04718 32.9539 8.68869 32.8673C8.63965 32.8554 8.56621 32.8161 8.46836 32.7494C8.46461 32.7467 8.46062 32.7444 8.45643 32.7424L8.088 32.5668C8.08689 32.5661 8.08579 32.5655 8.08468 32.5648C7.95414 32.4601 7.88257 32.4131 7.71691 32.3663C7.59631 32.3322 7.48763 32.2766 7.40149 32.1901C7.3614 32.1497 7.3054 32.098 7.25107 32.0662C7.00257 31.9204 6.77131 31.7379 6.55727 31.5188C6.48151 31.4413 6.38112 31.3459 6.2561 31.2325C6.15736 31.1431 6.07055 31.045 5.99568 30.9383C5.74619 30.5832 5.62691 30.4042 5.49571 30.2532C5.47637 30.2307 5.46041 30.2056 5.44833 30.1786C5.44612 30.1742 5.41354 30.0849 5.35058 29.9109C5.29846 29.7671 5.1889 29.5087 5.02191 29.1356C5.01135 29.1123 5.00389 29.0877 4.99971 29.0624C4.97983 28.9433 4.94659 28.8258 4.89998 28.7098C4.88965 28.6839 4.88274 28.6566 4.87944 28.6287C4.85194 28.403 4.8198 28.2602 4.81848 28.0737C4.81737 27.8968 4.81583 27.7197 4.81384 27.5426C4.81075 27.2744 4.82996 26.9904 4.87149 26.6904C4.88099 26.6202 4.89236 26.5662 4.90561 26.5284C4.92837 26.4632 4.98535 26.2933 5.07658 26.0185C5.1508 25.7952 5.25848 25.6163 5.32772 25.4055C5.39487 25.2014 5.48488 25.0036 5.59775 24.8121C5.66799 24.6929 5.74552 24.6319 5.83995 24.5348C5.85052 24.5238 5.85985 24.5117 5.86778 24.4987C5.91815 24.4159 5.97005 24.3353 6.00296 24.2379C6.05366 24.0892 6.2286 24.0425 6.31474 23.9437C6.33882 23.9161 6.38664 23.8376 6.45821 23.7082C6.46886 23.6888 6.4841 23.6723 6.5026 23.6601L6.81968 23.4534C6.84244 23.4385 6.86213 23.4194 6.87766 23.397C6.95917 23.2801 7.03372 23.1555 7.15631 23.0975C7.29303 23.0328 7.38084 22.9825 7.41971 22.9468C7.46013 22.9094 7.51237 22.861 7.57643 22.8013C7.58919 22.7897 7.60332 22.7796 7.61851 22.7715C7.81178 22.6694 7.99666 22.5729 8.17315 22.4819C8.37658 22.3768 8.53186 22.2677 8.63899 22.1546C8.64793 22.1452 8.6589 22.1378 8.67113 22.133C8.70161 22.1207 8.78179 22.0895 8.91167 22.0396C9.09489 21.9694 9.30661 21.8309 9.46068 21.7752C9.5614 21.7385 9.65638 21.7454 9.74562 21.7957C9.75185 21.7993 9.7569 21.8046 9.76009 21.8109C9.76328 21.8173 9.76447 21.8245 9.76351 21.8315Z" fill="url(#paint0_linear_21_6)"/>
<path d="M14.6838 12.3103C16.7149 12.3103 18.3615 13.9569 18.3615 15.9881C18.3615 18.0192 16.7149 19.6658 14.6838 19.6658C12.6527 19.6658 11.0061 18.0192 11.0061 15.9881C11.0061 13.9569 12.6526 12.3103 14.6838 12.3103ZM16.0422 14.033C15.4933 14.033 15.0482 14.4782 15.048 15.0271C15.048 15.5761 15.4932 16.0213 16.0422 16.0213C16.5911 16.0212 17.0363 15.576 17.0363 15.0271C17.0362 14.4783 16.591 14.033 16.0422 14.033Z" fill="url(#paint1_linear_21_6)"/>
<defs>
<linearGradient id="paint0_linear_21_6" x1="14.3742" y1="6.04991" x2="14.3742" y2="33.3497" gradientUnits="userSpaceOnUse">
<stop stop-color="#9416EB"/>
<stop offset="0.754808" stop-color="#D0643A"/>
<stop offset="1" stop-color="#E35B00"/>
</linearGradient>
<linearGradient id="paint1_linear_21_6" x1="14.6839" y1="12.3103" x2="14.6839" y2="19.6659" gradientUnits="userSpaceOnUse">
<stop stop-color="#9416EB"/>
<stop offset="0.754808" stop-color="#D0643A"/>
<stop offset="1" stop-color="#E35B00"/>
</linearGradient>
</defs>
</svg>
