<svg width="108" height="21" viewBox="0 0 108 21" fill="none" xmlns="http://www.w3.org/2000/svg">
<path d="M15.9564 20H12.1433L12.3676 14.6168L12.3302 12.5234L8.25547 12.4486L4.59191 12.5234L4.55453 14.2804L4.70406 20H0.89098L1.11528 14.6168L0.89098 1.98131H4.77883L4.6293 9.38318L8.47977 9.49533L12.2928 9.38318L12.1433 1.98131H16.0312L15.8069 14.2804L15.9564 20ZM25.1665 6.72897C27.1603 6.72897 28.6556 7.28972 29.6525 8.41121C30.6494 9.53271 31.1478 11.19 31.1478 13.3832C31.1478 15.5763 30.5996 17.2835 29.503 18.5047C28.4313 19.7009 26.9111 20.2991 24.9422 20.2991C22.9983 20.2991 21.5154 19.7383 20.4936 18.6168C19.4968 17.4704 18.9983 15.8006 18.9983 13.6075C18.9983 11.4143 19.5341 9.71963 20.6058 8.52336C21.6774 7.3271 23.1977 6.72897 25.1665 6.72897ZM25.0544 9.23364C24.1572 9.23364 23.5092 9.54517 23.1105 10.1682C22.7117 10.7664 22.5123 11.8255 22.5123 13.3458C22.5123 14.866 22.7117 15.9875 23.1105 16.7103C23.5092 17.4081 24.1697 17.757 25.0918 17.757C26.0139 17.757 26.6743 17.4704 27.0731 16.8972C27.4718 16.324 27.6712 15.2773 27.6712 13.757C27.6712 12.2368 27.4594 11.1028 27.0357 10.3551C26.612 9.60748 25.9516 9.23364 25.0544 9.23364ZM38.9556 6.72897C40.9494 6.72897 42.4447 7.28972 43.4416 8.41121C44.4385 9.53271 44.9369 11.19 44.9369 13.3832C44.9369 15.5763 44.3886 17.2835 43.292 18.5047C42.2204 19.7009 40.7001 20.2991 38.7313 20.2991C36.7874 20.2991 35.3045 19.7383 34.2827 18.6168C33.2858 17.4704 32.7874 15.8006 32.7874 13.6075C32.7874 11.4143 33.3232 9.71963 34.3948 8.52336C35.4665 7.3271 36.9867 6.72897 38.9556 6.72897ZM38.8434 9.23364C37.9463 9.23364 37.2983 9.54517 36.8995 10.1682C36.5008 10.7664 36.3014 11.8255 36.3014 13.3458C36.3014 14.866 36.5008 15.9875 36.8995 16.7103C37.2983 17.4081 37.9587 17.757 38.8808 17.757C39.8029 17.757 40.4634 17.4704 40.8621 16.8972C41.2609 16.324 41.4603 15.2773 41.4603 13.757C41.4603 12.2368 41.2484 11.1028 40.8248 10.3551C40.4011 9.60748 39.7406 9.23364 38.8434 9.23364ZM51.2867 20H47.5858L47.7727 14.5794L47.6232 0.635513L51.3241 0.336448L51.0998 14.2804L51.2867 20ZM54.8755 12.8598C55.7976 14.3053 57.3054 16.4735 59.3989 19.3645V19.7757C58.7758 19.9003 57.6169 20.0748 55.9222 20.2991L55.5484 20.1121C53.8038 17.6449 52.3833 15.3396 51.2867 13.1963V12.9346L54.5391 8.33645L55.2119 6.95327H59.1372L54.8755 12.8598ZM66.0494 6.72897C67.7192 6.72897 68.9653 7.05296 69.7877 7.70093C70.6102 8.34891 71.0214 9.24611 71.0214 10.3925C71.0214 10.7165 70.9591 11.7757 70.8345 13.5701C70.8345 13.5701 70.7971 14.5919 70.7223 16.6355C70.7223 16.9595 70.7597 17.1838 70.8345 17.3084C70.9092 17.4081 71.0588 17.4579 71.2831 17.4579C71.5074 17.4579 71.769 17.4206 72.0681 17.3458L72.3672 17.5701L71.9933 19.514C71.3952 19.8879 70.7223 20.1246 69.9747 20.2243C68.7784 20.1246 68.0557 19.4393 67.8064 18.1682H67.6195C66.6725 19.1651 65.713 19.8629 64.741 20.2617C63.3952 20.2368 62.336 19.8754 61.5634 19.1776C60.7909 18.4798 60.4046 17.5452 60.4046 16.3738C60.4046 14.5545 61.3641 13.4579 63.2831 13.0841L67.5821 12.2991V11.1402C67.5821 9.919 67.0089 9.30841 65.8625 9.30841C64.7161 9.30841 63.3703 9.84424 61.8251 10.9159L61.5261 10.7664L61.1148 8.29906C62.7597 7.25234 64.4046 6.72897 66.0494 6.72897ZM64.5915 14.8037C64.0183 14.9283 63.7317 15.2773 63.7317 15.8505C63.7317 16.972 64.2176 17.5327 65.1896 17.5327C65.9123 17.5327 66.6849 17.0966 67.5074 16.2243L67.5821 14.1308L64.5915 14.8037ZM81.7299 6.80374C83.3748 6.80374 84.6333 7.36449 85.5056 8.48598C86.4028 9.58255 86.8514 11.2025 86.8514 13.3458C86.8514 15.4891 86.2657 17.1838 85.0944 18.4299C83.948 19.676 82.3779 20.2991 80.3841 20.2991C79.4371 20.2991 78.3903 20.0748 77.2439 19.6262L75.2626 20.3364L74.814 19.9626L75.0383 14.6542L74.8514 0.635513L78.5523 0.336448L78.4776 8.82243H78.5897C79.6115 7.87539 80.6583 7.20249 81.7299 6.80374ZM80.3467 17.8692C82.3405 17.8442 83.3374 16.4984 83.3374 13.8318C83.3374 11.1402 82.5025 9.80685 80.8327 9.83178C80.0601 9.83178 79.2626 10.2056 78.4402 10.9533L78.3654 14.1682L78.4402 17.3458C79.138 17.6698 79.7735 17.8442 80.3467 17.8692ZM93.1227 20H89.4217L89.6086 14.5794L89.4591 0.635513L93.16 0.336448L92.9357 14.2804L93.1227 20ZM99.1954 13.9813C99.3449 16.3489 100.491 17.5327 102.635 17.5327C103.856 17.5327 105.114 17.1838 106.41 16.486L106.709 16.7103L106.223 19.4393C104.927 19.9875 103.619 20.2741 102.298 20.2991C100.23 20.2991 98.6222 19.7009 97.4757 18.5047C96.3293 17.3084 95.7561 15.6636 95.7561 13.5701C95.7561 11.4517 96.3293 9.79439 97.4757 8.59813C98.6471 7.37695 100.13 6.76636 101.924 6.76636C103.719 6.76636 105.052 7.22741 105.924 8.14953C106.822 9.04673 107.27 10.2928 107.27 11.8879C107.27 12.3863 107.233 12.8972 107.158 13.4206L106.597 13.9439L99.1954 13.9813ZM102.036 9.19626C101.314 9.19626 100.703 9.43302 100.205 9.90654C99.7312 10.3801 99.4197 11.053 99.2701 11.9252L103.98 11.7757L104.055 11.4766C104.03 9.95639 103.357 9.19626 102.036 9.19626Z" fill="#22202A"/>
</svg>
