<svg width="27" height="33" viewBox="0 0 27 33" fill="none" xmlns="http://www.w3.org/2000/svg">
<path d="M8.76351 18.8315C8.75489 18.8908 8.71381 18.9766 8.70884 19.0466C8.69724 19.2092 8.65583 19.3706 8.63595 19.5442C8.58559 19.9875 8.54848 20.3884 8.48221 20.8586C8.46797 20.9586 8.43583 21.0464 8.4133 21.1279C8.40691 21.1511 8.4028 21.1747 8.40104 21.1985C8.38933 21.3659 8.36128 21.5185 8.31688 21.6561C8.30631 21.6887 8.29909 21.7222 8.29534 21.7561C8.28574 21.8416 8.28242 22.0063 8.25095 22.1338C8.21737 22.2697 8.19805 22.3797 8.19297 22.4638C8.18457 22.5999 8.18115 23.1001 8.18269 23.9644C8.18269 24.0191 8.17209 24.0854 8.16414 24.1201C8.16299 24.1274 8.16019 24.1343 8.15594 24.1404C8.1517 24.1464 8.14613 24.1513 8.13966 24.1549C8.13319 24.1584 8.126 24.1604 8.11864 24.1607C8.11128 24.161 8.10395 24.1596 8.09721 24.1566L8.01869 24.1211C8.01014 24.1174 8.00229 24.1122 7.9955 24.1059C7.90206 24.0189 7.79891 23.9452 7.68604 23.8849C7.66677 23.8744 7.64969 23.8605 7.63568 23.8438C7.56963 23.7656 7.48658 23.7037 7.38652 23.6579C7.29883 23.6182 7.21092 23.5663 7.12278 23.5022C7.07739 23.4691 7.05685 23.428 7.01312 23.4012C7.00793 23.398 7.00204 23.3962 6.99598 23.3959C6.98993 23.3957 6.9839 23.3969 6.97844 23.3995C6.97298 23.4022 6.96826 23.4061 6.96471 23.411C6.96116 23.4159 6.95889 23.4217 6.95812 23.4277C6.95149 23.4785 6.94442 23.5191 6.93691 23.5496C6.91803 23.6261 6.87197 23.6848 6.83619 23.7593C6.83531 23.7611 6.83453 23.763 6.83387 23.765L6.72221 24.1294C6.72177 24.131 6.72144 24.1325 6.72122 24.1341C6.69074 24.3073 6.65363 24.581 6.68775 24.8013C6.70167 24.8906 6.70973 24.9832 6.71194 25.0793C6.71282 25.1246 6.72729 25.1711 6.75534 25.2188C6.77765 25.2566 6.79809 25.3007 6.81664 25.351C6.92399 25.6421 7.00792 25.8631 7.06845 26.014C7.12775 26.1614 7.26062 26.2459 7.41932 26.3672C7.44693 26.3882 7.49972 26.4596 7.57769 26.5816C7.61723 26.643 7.69045 26.7024 7.79736 26.7598C8.03724 26.8886 8.31578 27.0297 8.63297 27.1832C8.69194 27.2117 8.77212 27.2412 8.83739 27.2522C9.31097 27.333 9.59061 27.3755 9.67631 27.3797C10.0819 27.4003 10.5201 27.4005 10.991 27.3804C11.1212 27.3747 11.2514 27.335 11.3909 27.328C11.5749 27.3188 11.78 27.2866 12.0062 27.2316C12.0985 27.2091 12.183 27.1793 12.2597 27.1422C12.373 27.0875 12.4753 27.0716 12.5953 27.0129C12.6649 26.9789 12.7826 26.9297 12.9485 26.8652C12.9681 26.8575 12.9883 26.8516 13.0088 26.8476C13.1281 26.8253 13.2076 26.8007 13.2473 26.7737C13.3885 26.6772 13.5213 26.5913 13.6459 26.516C13.6589 26.508 13.6708 26.4987 13.6814 26.4881C13.7812 26.3881 13.9367 26.3004 14.1479 26.225C14.2316 26.195 14.3175 26.1231 14.4056 26.0094C14.4067 26.008 14.4079 26.0068 14.409 26.0057L14.5203 25.907C14.5635 25.8688 14.6101 25.8349 14.6594 25.8056C14.7915 25.7276 14.8763 25.6695 14.9139 25.6313C15.0511 25.4926 15.177 25.383 15.2916 25.3026C15.5139 25.1469 15.6455 24.968 15.827 24.8027C15.9907 24.6536 16.1239 24.4694 16.2677 24.3312C16.3245 24.2766 16.399 24.1888 16.4913 24.0678C16.5722 23.9618 16.7077 23.7974 16.8329 23.6772C16.9393 23.5751 17.0079 23.4204 17.0847 23.3024C17.0946 23.2873 17.1066 23.2734 17.1202 23.2613C17.2627 23.133 17.3824 22.9782 17.4794 22.7968C17.5503 22.6643 17.6109 22.545 17.71 22.4161C17.7817 22.3225 17.8521 22.2258 17.921 22.1262C17.9311 22.1115 17.9397 22.0957 17.9465 22.0792L18.0718 21.7707C18.0779 21.7555 18.0857 21.741 18.095 21.7273C18.1456 21.6531 18.2344 21.5726 18.2911 21.4791C18.4464 21.2238 18.5598 20.9847 18.6314 20.7618C18.6325 20.7585 18.634 20.7554 18.636 20.7525L18.8182 20.4915C18.8266 20.4798 18.834 20.4675 18.8404 20.4547L19.0922 19.963C19.0997 19.9482 19.1058 19.9329 19.1105 19.9173L19.1651 19.7304C19.1676 19.7218 19.1711 19.7135 19.1757 19.7056C19.3056 19.4798 19.4294 19.231 19.5472 18.9591C19.5631 18.9224 19.5836 18.8469 19.6088 18.7325C19.6158 18.7006 19.6272 18.6698 19.6426 18.641C19.7171 18.5002 19.7913 18.367 19.8314 18.2222C19.8383 18.1978 19.8477 18.1742 19.8596 18.152C19.9409 18.0007 19.9908 17.9097 20.0093 17.879C20.0206 17.8614 20.0293 17.8424 20.0352 17.8226L20.2671 17.0324C20.2682 17.0291 20.2696 17.0258 20.2711 17.0225C20.3581 16.8528 20.4063 16.7497 20.4156 16.713C20.4438 16.6021 20.4865 16.4767 20.5434 16.3366C20.5806 16.2459 20.5885 16.0898 20.6134 15.996C20.6785 15.7511 20.7387 15.5622 20.7939 15.4295C20.845 15.3067 20.8794 15.2049 20.8973 15.1243C20.9298 14.9789 21.0401 14.7201 21.0759 14.526C21.1137 14.3205 21.1402 14.2311 21.1438 14.1158C21.1491 13.9491 21.1955 13.7914 21.2034 13.6241C21.2127 13.4279 21.2684 13.2885 21.2787 13.0936C21.2952 12.7855 21.3373 12.486 21.3363 12.1735C21.3359 11.9615 21.3318 11.8202 21.324 11.7498C21.2946 11.4841 21.281 11.2468 21.2306 10.9722C21.2118 10.869 21.183 10.7141 21.1441 10.5073C21.1225 10.3913 21.0884 10.2807 21.0418 10.1753C20.9631 9.99795 20.9119 9.88552 20.888 9.83803C20.8657 9.79385 20.806 9.71025 20.7088 9.58721C20.7 9.57622 20.6927 9.56407 20.6872 9.5511C20.6356 9.42895 20.5943 9.34215 20.5633 9.29068C20.5443 9.25931 20.4604 9.14158 20.3115 8.93749C20.1403 8.70291 19.9793 8.51273 19.8284 8.36694C19.7628 8.30333 19.6687 8.24402 19.5998 8.17544C19.4943 8.07008 19.3305 7.91667 19.1085 7.71523C19.0926 7.70091 19.0753 7.68825 19.0568 7.67746L18.6854 7.46309C18.6677 7.45295 18.651 7.44097 18.6353 7.42731C18.5088 7.31731 18.3978 7.19173 18.1934 7.11984C17.9979 7.05114 17.7965 6.95616 17.5894 6.8349C17.5768 6.82762 17.5648 6.81931 17.5536 6.81005C17.4743 6.74511 17.4104 6.70601 17.3621 6.69276C17.1938 6.6467 16.9691 6.60595 16.8054 6.54399C16.6795 6.49595 16.5848 6.48071 16.4549 6.42703C16.367 6.39059 16.2179 6.33437 16.0076 6.25839C15.864 6.20626 15.7105 6.16794 15.5471 6.14342C15.2988 6.10587 15.0691 6.07616 14.8579 6.05429C14.6677 6.03463 14.4368 6.02459 14.1651 6.02414C13.4919 6.02304 13.1023 6.02569 12.9965 6.03209C12.667 6.05175 12.3596 6.08632 12.0744 6.1358C11.9457 6.15811 11.8444 6.18274 11.7706 6.20969C11.6431 6.25607 11.5231 6.28092 11.3727 6.33857C11.0378 6.4669 10.8025 6.55095 10.6666 6.59071C10.4122 6.66471 10.2763 6.70612 10.2591 6.71496C10.249 6.72002 10.2394 6.72624 10.2306 6.73351C10.1608 6.7905 10.0891 6.83777 10.0156 6.87532C9.83866 6.96566 9.64583 7.05699 9.43709 7.14932C9.24724 7.23315 9.08224 7.43459 8.91658 7.52505C8.72529 7.62908 8.6143 7.6948 8.5836 7.72219C8.44135 7.84919 8.32781 7.94439 8.24299 8.00779C8.06275 8.14264 7.97065 8.23176 7.77881 8.39179C7.66351 8.48788 7.53495 8.65652 7.41269 8.76619C7.28878 8.87752 7.13339 9.02827 7.00947 9.19526C6.86634 9.38853 6.73425 9.54293 6.61321 9.65845C6.53766 9.73068 6.4862 9.79595 6.45881 9.85426C6.43009 9.91655 6.39751 9.99463 6.36107 10.0885C6.33832 10.1475 6.29072 10.213 6.21827 10.285C6.15929 10.3437 6.10451 10.4299 6.05393 10.5434C5.99009 10.687 5.93907 10.8191 5.90086 10.9397C5.84818 11.106 5.80577 11.167 5.712 11.324C5.7001 11.3439 5.69022 11.3648 5.68251 11.3866C5.63811 11.5137 5.58444 11.6435 5.52149 11.7763C5.45887 11.9081 5.45555 12.0669 5.42938 12.2093C5.41988 12.2612 5.41005 12.3447 5.39989 12.4598C5.37604 12.7257 5.36102 12.9184 5.35483 13.0376C5.34003 13.325 5.33871 13.705 5.35086 14.1777C5.35439 14.3156 5.36091 14.4175 5.3704 14.4835C5.39525 14.6621 5.39625 14.8268 5.42839 15.0123C5.45058 15.1409 5.46284 15.3211 5.53772 15.4573C5.54455 15.4699 5.54999 15.4831 5.55396 15.4967C5.55396 15.497 5.55915 15.5219 5.56953 15.5716C5.58543 15.6495 5.63745 15.7306 5.65601 15.7969C5.66436 15.8266 5.67697 15.8549 5.69345 15.8811C5.75861 15.9836 5.81825 16.1052 5.87236 16.2459C5.93068 16.3966 5.98468 16.5066 6.03339 16.671C6.04708 16.7162 6.08574 16.7909 6.14935 16.8949C6.15728 16.9077 6.16649 16.9197 6.17685 16.9307C6.27271 17.0308 6.32926 17.1026 6.34649 17.1461C6.40326 17.289 6.45207 17.4077 6.49293 17.5022C6.49822 17.5139 6.50477 17.525 6.51248 17.5354C6.55445 17.5908 6.57753 17.6254 6.58173 17.6391C6.63253 17.8065 6.63231 17.9794 6.58107 18.1576C6.57733 18.1706 6.57175 18.1828 6.5645 18.1941C6.51061 18.2795 6.47604 18.3653 6.4608 18.4515C6.45842 18.4645 6.45245 18.4765 6.44357 18.4863C6.4069 18.5263 6.37388 18.552 6.3445 18.5635C6.2292 18.6094 6.10617 18.658 5.9754 18.7093C5.82001 18.7699 5.61824 18.7961 5.47113 18.7553C5.26173 18.6977 5.15007 18.6834 4.99236 18.6208C4.92941 18.5956 4.80019 18.5492 4.60471 18.4816C4.51558 18.4508 4.41652 18.3372 4.35224 18.2527C4.24986 18.1188 4.1011 18.0291 3.95167 17.9426C3.79727 17.8528 3.79263 17.6593 3.65414 17.5463C3.58721 17.4915 3.5247 17.4268 3.46661 17.3522C3.45872 17.3421 3.45255 17.3306 3.44839 17.3184C3.39847 17.1732 3.33916 17.0371 3.27046 16.9098C3.15815 16.7011 3.09917 16.5169 2.97061 16.328C2.96379 16.3179 2.95823 16.3071 2.95405 16.2959C2.85929 16.0359 2.80716 15.8637 2.79766 15.7794C2.77557 15.5834 2.74421 15.4001 2.70357 15.2294C2.62372 14.896 2.60682 14.7194 2.54917 14.4193C2.53238 14.3316 2.52189 14.222 2.51769 14.0906C2.50135 13.5695 2.50278 13.0529 2.522 12.5406C2.52465 12.4722 2.5421 12.3774 2.57435 12.2564C2.60549 12.1394 2.61411 12.0675 2.62935 11.9363C2.64658 11.7892 2.7029 11.6689 2.72643 11.5188C2.75691 11.3214 2.78375 11.1442 2.80694 10.9874C2.83543 10.7936 2.88778 10.6763 2.95372 10.4775C2.99414 10.3549 3.0826 10.2273 3.12468 10.1236C3.21922 9.88927 3.27643 9.75067 3.29631 9.70782C3.34833 9.59517 3.37649 9.3977 3.43083 9.32116C3.51145 9.20829 3.57694 9.10238 3.6273 9.00342C3.72692 8.80683 3.8282 8.61003 3.93113 8.413C3.9552 8.36661 4.02136 8.28621 4.12959 8.17179C4.2926 7.9995 4.36052 7.77619 4.46986 7.65029C4.65474 7.43691 4.85155 7.21459 5.02748 6.97803C5.10148 6.87863 5.17724 6.79458 5.25477 6.72589C5.34092 6.64924 5.42596 6.56531 5.50989 6.47408C5.62166 6.35282 5.70537 6.267 5.76104 6.21664C5.80897 6.17335 5.95873 6.04888 6.21031 5.84324C6.3001 5.77002 6.39552 5.65372 6.48929 5.6027C6.7464 5.46222 6.89384 5.32107 7.07474 5.12261C7.08301 5.11347 7.09337 5.10653 7.10489 5.1024C7.33616 5.01691 7.45543 4.9977 7.58068 4.85622C7.61955 4.81227 7.68162 4.76665 7.76688 4.71938C7.9363 4.62529 8.10494 4.54952 8.27281 4.49209C8.34703 4.46658 8.4186 4.42484 8.46763 4.39137C8.68785 4.24051 8.88742 4.13404 9.06634 4.07197C9.19732 4.02625 9.32256 3.98859 9.44206 3.95899C9.45947 3.95458 9.47656 3.94848 9.49309 3.94077C9.65676 3.86423 9.77869 3.79068 9.94236 3.73866C10.0517 3.70398 10.1636 3.65627 10.278 3.59553C10.3215 3.57267 10.368 3.55616 10.4162 3.54649C10.548 3.51999 10.6716 3.47724 10.7975 3.462C10.9424 3.44477 11.1362 3.40844 11.379 3.353C11.534 3.31755 11.7014 3.32185 11.8597 3.25393C11.8771 3.24645 11.8954 3.241 11.9141 3.2377C12.0128 3.21914 12.1506 3.21318 12.2905 3.18435C12.5014 3.14062 12.6402 3.1193 12.7069 3.12041C12.8565 3.12262 13.0168 3.11411 13.188 3.0949C13.4149 3.06971 13.5747 3.05602 13.6675 3.05381C14.1671 3.04299 14.5537 3.05469 14.8274 3.08893C14.9452 3.10373 15.0736 3.11212 15.2128 3.11411C15.4007 3.11698 15.5706 3.14139 15.7223 3.18734C15.7451 3.19418 15.8525 3.20721 16.0447 3.22643C16.0716 3.22908 16.0982 3.23429 16.1242 3.242C16.2881 3.29038 16.4731 3.334 16.6792 3.37288C16.8387 3.40292 17.047 3.44411 17.3041 3.49646C17.4141 3.51877 17.5052 3.54649 17.5774 3.57962C17.6997 3.63529 17.8027 3.65881 17.9283 3.72905C18.1483 3.85208 18.3894 3.95303 18.6516 4.03188C18.7854 4.07197 18.8934 4.1177 19.0051 4.1664C19.0128 4.1697 19.02 4.17393 19.0266 4.17899L19.2496 4.34664C19.2516 4.34818 19.2537 4.34941 19.2559 4.35029C19.3175 4.37436 19.3875 4.41622 19.4656 4.47586C19.4835 4.4895 19.5028 4.50096 19.5233 4.50999C19.7165 4.59381 19.9527 4.68559 20.1177 4.84164C20.1963 4.91608 20.2578 4.96445 20.3022 4.98676C20.439 5.05524 20.5315 5.11432 20.5799 5.16402C20.7204 5.30804 20.8226 5.40291 20.8867 5.44863C21.0572 5.57078 21.1435 5.63252 21.1455 5.63384C21.2545 5.71203 21.328 5.83595 21.4453 5.92408C21.6037 6.04336 21.6955 6.10432 21.8008 6.24116C21.9317 6.41113 22.0944 6.55923 22.2246 6.7186C22.3622 6.88714 22.5025 7.03833 22.6454 7.17219C22.6586 7.1845 22.6699 7.19843 22.6792 7.2136C22.755 7.33917 22.8147 7.51246 22.9048 7.60987C22.9876 7.69999 23.0357 7.75465 23.0489 7.77387C23.1996 7.99564 23.3089 8.22944 23.3769 8.47529C23.3825 8.49556 23.3901 8.51532 23.3998 8.53426C23.4525 8.63598 23.5353 8.7367 23.5824 8.85101C23.6731 9.07167 23.7417 9.24562 23.7818 9.48252C23.8173 9.69059 23.8869 9.82345 23.9134 10.0196C23.9235 10.0949 23.9518 10.181 23.9982 10.2777C24.0039 10.2896 24.0079 10.3023 24.0101 10.3155L24.0505 10.5447C24.0514 10.5489 24.0525 10.5531 24.0538 10.5573C24.0996 10.6996 24.1231 10.7947 24.1244 10.8426C24.1286 10.9897 24.1385 11.0865 24.1542 11.1328C24.1962 11.2552 24.2194 11.3691 24.2238 11.4744C24.2481 12.0324 24.2481 12.5929 24.2238 13.1559C24.2207 13.2242 24.2056 13.3154 24.1784 13.4296C24.1406 13.587 24.1344 13.6731 24.1208 13.8328C24.1088 13.9723 24.0532 14.1178 24.0336 14.2526C24.0098 14.4183 23.9409 14.6114 23.9137 14.7857C23.8961 14.898 23.8421 15.0064 23.8309 15.1054C23.8216 15.1872 23.7971 15.3572 23.7573 15.6157C23.7359 15.7551 23.708 15.8801 23.6738 15.9907C23.6179 16.1727 23.5777 16.2948 23.5532 16.3569C23.5247 16.4291 23.4819 16.5429 23.4247 16.6985C23.3229 16.9754 23.3173 17.316 23.2113 17.5549C23.1324 17.7319 23.091 17.8568 22.9966 18.0619C22.938 18.1889 22.8976 18.2911 22.8753 18.3687C22.8389 18.4949 22.7888 18.5807 22.7594 18.7109C22.7203 18.8817 22.6888 18.9902 22.6649 19.0366C22.5973 19.1672 22.548 19.281 22.5168 19.3782C22.5104 19.3982 22.5013 19.4173 22.4897 19.4349C22.4892 19.4355 22.4486 19.5056 22.3677 19.6449C22.2448 19.8563 22.1782 20.1065 22.1113 20.3506C22.1071 20.3654 22.1011 20.3795 22.0934 20.3927L21.8436 20.8158C21.842 20.8185 21.8407 20.8212 21.8396 20.8241L21.5947 21.4828C21.5932 21.487 21.591 21.4909 21.5881 21.4944C21.3635 21.7631 21.2038 22.1488 21.0679 22.4791C21.0622 22.4932 21.0552 22.5068 21.0471 22.5198C20.9917 22.609 20.8996 22.7074 20.836 22.8068C20.781 22.8925 20.7363 22.9693 20.7018 23.0374C20.6181 23.2017 20.5293 23.3718 20.4354 23.5476C20.4335 23.5516 20.431 23.5554 20.4281 23.5589L20.2373 23.7915C20.2294 23.8011 20.2229 23.812 20.2181 23.8236C20.1339 24.031 20.0942 24.1413 19.9315 24.3136C19.9196 24.3262 19.9089 24.34 19.8997 24.3547C19.8215 24.4782 19.7332 24.5938 19.635 24.7016C19.6222 24.7157 19.6115 24.7315 19.6031 24.7487C19.5645 24.8269 19.4962 24.9429 19.3984 25.0969C19.3723 25.1377 19.3272 25.1872 19.2629 25.2453C19.1838 25.3171 19.1242 25.4053 19.084 25.51C19.0359 25.6343 18.9117 25.7138 18.7791 25.8198C18.7732 25.8245 18.7679 25.8298 18.7632 25.8357L18.6466 25.9825C18.6455 25.9841 18.6445 25.9856 18.6436 25.9872C18.5749 26.1142 18.5152 26.1992 18.4644 26.2423C18.2762 26.402 18.1489 26.5287 18.0824 26.6223C17.9936 26.7471 17.9311 26.8224 17.8948 26.8483C17.8515 26.879 17.7844 26.9349 17.6934 27.0159C17.6225 27.0789 17.5655 27.1948 17.4856 27.2518C17.3222 27.3689 17.2313 27.4353 17.213 27.451C17.1178 27.5331 17.031 27.6311 16.9525 27.7448C16.9413 27.7612 16.9064 27.7906 16.8478 27.833C16.8362 27.8413 16.8237 27.8487 16.8107 27.8548C16.5924 27.9589 16.491 28.0599 16.3446 28.2153C16.3309 28.2296 16.3156 28.2421 16.2988 28.2524C16.1885 28.32 16.047 28.384 15.9384 28.483C15.8672 28.548 15.808 28.596 15.7608 28.6272C15.5719 28.7524 15.4235 28.8611 15.2071 28.9565C15.0556 29.0234 14.9117 29.1119 14.7754 29.2219C14.7631 29.2318 14.7497 29.2402 14.7356 29.2471C14.4832 29.3693 14.1976 29.4601 14.0737 29.5221C13.8066 29.6564 13.6355 29.7417 13.5604 29.7782C13.4449 29.8343 13.2891 29.8823 13.0929 29.9223C12.8672 29.968 12.7219 29.999 12.6569 30.0151C12.4435 30.0681 12.2682 30.1139 12.1308 30.1526C11.8399 30.2344 11.6043 30.2556 11.3213 30.3106C11.235 30.3274 11.1253 30.3375 10.9923 30.3408C10.595 30.3505 10.2344 30.3523 9.91056 30.3461C9.72811 30.3425 9.55018 30.3233 9.37679 30.2884C9.00438 30.2138 8.73822 30.1486 8.5783 30.0929C8.51269 30.07 8.47857 30.0583 8.47592 30.0578C8.30959 30.0174 8.04718 29.9539 7.68869 29.8673C7.63965 29.8554 7.56621 29.8161 7.46836 29.7494C7.46461 29.7467 7.46062 29.7444 7.45643 29.7424L7.088 29.5668C7.08689 29.5661 7.08579 29.5655 7.08468 29.5648C6.95414 29.4601 6.88257 29.4131 6.71691 29.3663C6.59631 29.3322 6.48763 29.2766 6.40149 29.1901C6.3614 29.1497 6.3054 29.098 6.25107 29.0662C6.00257 28.9204 5.77131 28.7379 5.55727 28.5188C5.48151 28.4413 5.38112 28.3459 5.2561 28.2325C5.15736 28.1431 5.07055 28.045 4.99568 27.9383C4.74619 27.5832 4.62691 27.4042 4.49571 27.2532C4.47637 27.2307 4.46041 27.2056 4.44833 27.1786C4.44612 27.1742 4.41354 27.0849 4.35058 26.9109C4.29846 26.7671 4.1889 26.5087 4.02191 26.1356C4.01135 26.1123 4.00389 26.0877 3.99971 26.0624C3.97983 25.9433 3.94659 25.8258 3.89998 25.7098C3.88965 25.6839 3.88274 25.6566 3.87944 25.6287C3.85194 25.403 3.8198 25.2602 3.81848 25.0737C3.81737 24.8968 3.81583 24.7197 3.81384 24.5426C3.81075 24.2744 3.82996 23.9904 3.87149 23.6904C3.88099 23.6202 3.89236 23.5662 3.90561 23.5284C3.92837 23.4632 3.98535 23.2933 4.07658 23.0185C4.1508 22.7952 4.25848 22.6163 4.32772 22.4055C4.39487 22.2014 4.48488 22.0036 4.59775 21.8121C4.66799 21.6929 4.74552 21.6319 4.83995 21.5348C4.85052 21.5238 4.85985 21.5117 4.86778 21.4987C4.91815 21.4159 4.97005 21.3353 5.00296 21.2379C5.05366 21.0892 5.2286 21.0425 5.31474 20.9437C5.33882 20.9161 5.38664 20.8376 5.45821 20.7082C5.46886 20.6888 5.4841 20.6723 5.5026 20.6601L5.81968 20.4534C5.84244 20.4385 5.86213 20.4194 5.87766 20.397C5.95917 20.2801 6.03372 20.1555 6.15631 20.0975C6.29303 20.0328 6.38084 19.9825 6.41971 19.9468C6.46013 19.9094 6.51237 19.861 6.57643 19.8013C6.58919 19.7897 6.60332 19.7796 6.61851 19.7715C6.81178 19.6694 6.99666 19.5729 7.17315 19.4819C7.37658 19.3768 7.53186 19.2677 7.63899 19.1546C7.64793 19.1452 7.6589 19.1378 7.67113 19.133C7.70161 19.1207 7.78179 19.0895 7.91167 19.0396C8.09489 18.9694 8.30661 18.8309 8.46068 18.7752C8.5614 18.7385 8.65638 18.7454 8.74562 18.7957C8.75185 18.7993 8.7569 18.8046 8.76009 18.8109C8.76328 18.8173 8.76447 18.8245 8.76351 18.8315Z" fill="url(#paint0_linear_1_198)"/>
<path d="M13.6838 9.31032C15.7149 9.31033 17.3615 10.9569 17.3615 12.9881C17.3615 15.0192 15.7149 16.6658 13.6838 16.6658C11.6527 16.6658 10.0061 15.0192 10.0061 12.9881C10.0061 10.9569 11.6526 9.31032 13.6838 9.31032ZM15.0422 11.033C14.4933 11.033 14.0482 11.4782 14.048 12.0271C14.048 12.5761 14.4932 13.0213 15.0422 13.0213C15.5911 13.0212 16.0363 12.576 16.0363 12.0271C16.0362 11.4783 15.591 11.033 15.0422 11.033Z" fill="url(#paint1_linear_1_198)"/>
<defs>
<linearGradient id="paint0_linear_1_198" x1="13.3742" y1="3.04991" x2="13.3742" y2="30.3497" gradientUnits="userSpaceOnUse">
<stop stop-color="#9416EB"/>
<stop offset="0.754808" stop-color="#D0643A"/>
<stop offset="1" stop-color="#E35B00"/>
</linearGradient>
<linearGradient id="paint1_linear_1_198" x1="13.6839" y1="9.31032" x2="13.6839" y2="16.6659" gradientUnits="userSpaceOnUse">
<stop stop-color="#9416EB"/>
<stop offset="0.754808" stop-color="#D0643A"/>
<stop offset="1" stop-color="#E35B00"/>
</linearGradient>
</defs>
</svg>
