<svg width="20" height="20" viewBox="0 0 20 20" fill="none" xmlns="http://www.w3.org/2000/svg">
<path d="M10.0005 6.875C9.3824 6.875 8.77821 7.05828 8.26431 7.40166C7.7504 7.74504 7.34986 8.2331 7.11334 8.80411C6.87681 9.37513 6.81493 10.0035 6.93551 10.6097C7.05609 11.2158 7.35371 11.7727 7.79075 12.2097C8.22779 12.6467 8.78461 12.9444 9.39081 13.065C9.997 13.1855 10.6253 13.1236 11.1963 12.8871C11.7674 12.6506 12.2554 12.2501 12.5988 11.7362C12.9422 11.2223 13.1255 10.6181 13.1255 10C13.123 9.17196 12.793 8.37854 12.2074 7.79302C11.6219 7.20751 10.8285 6.87747 10.0005 6.875ZM16.7473 10C16.7457 10.292 16.7243 10.5836 16.6833 10.8727L18.5852 12.3617C18.6681 12.4301 18.7239 12.5257 18.7427 12.6315C18.7615 12.7373 18.7421 12.8463 18.688 12.9391L16.8887 16.0453C16.834 16.1373 16.7487 16.207 16.6477 16.2422C16.5466 16.2774 16.4364 16.2759 16.3364 16.2379L14.1001 15.3395C13.6344 15.698 13.1248 15.9956 12.5837 16.225L12.2493 18.5992C12.2306 18.7056 12.1755 18.8021 12.0935 18.8724C12.0115 18.9426 11.9076 18.9822 11.7997 18.9844H8.20124C8.09525 18.9823 7.99308 18.9444 7.91142 18.8768C7.82976 18.8092 7.77344 18.7159 7.75163 18.6121L7.41726 16.2379C6.87463 16.0112 6.36467 15.7131 5.90085 15.3516L3.66453 16.25C3.56456 16.2881 3.45438 16.2896 3.35336 16.2545C3.25233 16.2193 3.16694 16.1497 3.11218 16.0578L1.31296 12.952C1.25881 12.8592 1.2394 12.7502 1.25822 12.6444C1.27704 12.5386 1.33286 12.443 1.4157 12.3746L3.31765 10.8855C3.27713 10.5921 3.25573 10.2963 3.25359 10C3.25521 9.708 3.27661 9.41645 3.31765 9.12734L1.4157 7.63828C1.33286 7.56988 1.27704 7.47426 1.25822 7.36849C1.2394 7.26272 1.25881 7.15371 1.31296 7.06094L3.11218 3.95469C3.16688 3.86273 3.25225 3.79301 3.35327 3.75779C3.4543 3.72256 3.56451 3.72409 3.66453 3.76211L5.90085 4.66055C6.36653 4.30197 6.87613 4.00438 7.41726 3.775L7.75163 1.40078C7.77035 1.29443 7.82541 1.19788 7.90742 1.12763C7.98943 1.05738 8.09328 1.01779 8.20124 1.01562H11.7997C11.9057 1.01769 12.0078 1.05562 12.0895 1.12323C12.1712 1.19084 12.2275 1.28414 12.2493 1.38789L12.5837 3.76211C13.127 3.98866 13.6376 4.28674 14.102 4.64844L16.3364 3.75C16.4364 3.71195 16.5465 3.71036 16.6476 3.74551C16.7486 3.78066 16.834 3.8503 16.8887 3.94219L18.688 7.04844C18.7421 7.14121 18.7615 7.25023 18.7427 7.35599C18.7239 7.46176 18.6681 7.55738 18.5852 7.62578L16.6833 9.11484C16.7238 9.4082 16.7452 9.70387 16.7473 10Z" fill="#4D5154"/>
</svg>
