<svg width="376" height="495" viewBox="0 0 376 495" fill="none" xmlns="http://www.w3.org/2000/svg">
<path d="M28.4287 11.5547C31.0811 11.5547 33.0361 12.8809 33.0361 14.8906C33.0361 16.7432 31.4434 17.9805 29.1807 18.1992V20.4688H34.1025V21.7129H22.8096V20.4688H27.6768V18.1992C25.4277 17.9805 23.835 16.7432 23.8486 14.8906C23.835 12.8809 25.79 11.5547 28.4287 11.5547ZM28.4287 12.7852C26.624 12.7715 25.3252 13.5918 25.3389 14.8906C25.3252 16.2305 26.624 17.0234 28.4287 17.0234C30.2607 17.0234 31.5459 16.2305 31.5459 14.8906C31.5459 13.5918 30.2607 12.7715 28.4287 12.7852ZM46.1885 17.5977V18.8145H34.8955V17.5977H46.1885ZM45.0674 21.7402V22.9707H36.3447V19.5938H37.876V21.7402H45.0674ZM44.7939 11.1855V14.4805H37.835V15.5332H45.04V16.6816H36.3311V13.3867H43.2764V12.375H36.29V11.1855H44.7939ZM51.001 12.5801C51.001 13.2158 51.5684 14.002 52.6416 14.4258C53.6875 14.0156 54.2412 13.2363 54.2412 12.5801V12.5254H52.874V11.2949H57.4951V12.5254H55.7861V12.6211C55.7861 13.4688 56.5244 14.3984 58.0146 14.7539L57.3584 15.8613C56.1484 15.5469 55.3623 14.8633 54.9658 14.0293C54.542 14.7744 53.7832 15.417 52.6279 15.6973C51.4795 15.3965 50.7139 14.7471 50.3037 14.002C49.9004 14.8359 49.1143 15.54 47.9111 15.8613L47.2686 14.7539C48.7178 14.3848 49.4971 13.4141 49.4971 12.6211V12.5254H47.7471V11.2949H52.3818V12.5254H51.001V12.5801ZM58.2744 16.8457V18.0625H47.0088V16.8457H51.876V15.752H53.3799V16.8457H58.2744ZM56.8936 19.1562V23.2168H55.3623V20.373H48.2256V19.1562H56.8936ZM69.7725 10.8574V23.2168H68.3096V10.8574H69.7725ZM67.2295 11.0762V22.6152H65.7803V16.7363H64.6045C64.4609 19.1426 63.4287 20.6328 61.8975 20.6191C60.2842 20.6328 59.2314 18.9238 59.2314 16.2031C59.2314 13.4824 60.2842 11.8008 61.8975 11.8008C63.3945 11.8008 64.4131 13.1953 64.5908 15.5059H65.7803V11.0762H67.2295ZM61.8975 13.2363C61.1182 13.2227 60.626 14.2754 60.6396 16.2031C60.626 18.1309 61.1182 19.1836 61.8975 19.1699C62.7178 19.1836 63.21 18.1309 63.21 16.2031C63.21 14.2754 62.7178 13.2227 61.8975 13.2363ZM75.7744 13.8242C75.7744 16.1211 76.8682 18.377 78.8369 19.2383L77.9209 20.4551C76.5195 19.7715 75.5352 18.459 75.0088 16.8457C74.4688 18.5479 73.4639 19.9629 72.042 20.6875L71.085 19.457C73.0947 18.5137 74.2158 16.1348 74.2295 13.8242V11.8555H75.7744V13.8242ZM81.5713 10.8574V23.2305H80.0674V16.0801H77.4697V14.8496H80.0674V10.8574H81.5713ZM90.4033 14.6172C90.4033 16.5039 91.1826 18.4453 92.9326 19.3613L92.0713 20.4824C90.916 19.8809 90.1436 18.8008 89.7061 17.502C89.2686 18.8965 88.4893 20.0928 87.3271 20.7559L86.4521 19.6348C88.1748 18.623 88.9678 16.5723 88.9678 14.6172V14.2754H86.8076V13.0312H88.9678V11.2949H90.4033V13.0312H92.5361V14.2754H90.4033V14.6172ZM97.3486 10.8574V23.2168H95.8994V16.9551H94.6279V22.6152H93.1924V11.0762H94.6279V15.6973H95.8994V10.8574H97.3486ZM105.388 11.7461V12.9492H100.958V14.125H105.032V15.3145H100.958V16.5039C103.269 16.5176 104.677 16.4834 106.304 16.2031L106.454 17.4062C104.677 17.6934 103.132 17.748 100.466 17.7344H99.4131V11.7461H105.388ZM109.024 10.8711V18.4043H107.493V10.8711H109.024ZM104.854 18.582C107.452 18.582 109.079 19.4297 109.079 20.8926C109.079 22.3555 107.452 23.2031 104.854 23.2031C102.216 23.2031 100.616 22.3555 100.63 20.8926C100.616 19.4297 102.216 18.582 104.854 18.582ZM104.854 19.7578C103.104 19.7578 102.134 20.168 102.147 20.8926C102.134 21.6309 103.104 22.0273 104.854 22.0273C106.563 22.0273 107.562 21.6309 107.562 20.8926C107.562 20.168 106.563 19.7578 104.854 19.7578ZM116.448 11.0488C119.265 11.0488 120.892 11.8008 120.905 13.168C120.892 14.5488 119.265 15.2871 116.448 15.3008C113.632 15.2871 111.991 14.5488 111.991 13.168C111.991 11.8008 113.632 11.0488 116.448 11.0488ZM116.448 12.1699C114.562 12.1699 113.577 12.5254 113.591 13.168C113.577 13.8516 114.562 14.166 116.448 14.166C118.362 14.166 119.333 13.8516 119.333 13.168C119.333 12.5254 118.362 12.1699 116.448 12.1699ZM122.095 15.957V17.1738H110.829V15.957H122.095ZM120.687 18.0078V21.0293H113.659V21.9453H121.028V23.1074H112.169V19.9492H119.196V19.1289H112.155V18.0078H120.687ZM130.927 13.8242C130.913 16.0938 132.103 18.3633 134.112 19.2246L133.21 20.4414C131.788 19.7852 130.742 18.4727 130.175 16.8594C129.607 18.6025 128.548 20.0244 127.044 20.7285L126.114 19.457C128.179 18.5684 129.382 16.2031 129.382 13.8242V11.8555H130.927V13.8242ZM136.532 10.8574V23.2305H135.001V10.8574H136.532ZM142.78 13.0039C142.78 14.5215 143.765 16.0254 145.706 16.668L144.94 17.8438C143.56 17.3857 142.575 16.4561 142.042 15.3008C141.488 16.5654 140.463 17.5703 139.021 18.0625L138.214 16.8867C140.21 16.2305 141.249 14.6309 141.249 13.0039V12.8535H138.638V11.6367H145.351V12.8535H142.78V13.0039ZM148.099 10.8574V13.9473H149.821V15.2188H148.099V18.3086H146.581V10.8574H148.099ZM148.099 18.8828V23.2168H146.581V20.0996H139.868V18.8828H148.099ZM160.13 10.8574V15.7793H162.03V17.0371H160.13V23.2168H158.626V10.8574H160.13ZM157.669 12.7578V13.9746H150.382V12.7578H153.308V11.0352H154.825V12.7578H157.669ZM154.073 14.7812C155.851 14.7812 157.177 15.9844 157.177 17.6934C157.177 19.4023 155.851 20.5918 154.073 20.5918C152.269 20.5918 150.942 19.4023 150.956 17.6934C150.942 15.9844 152.269 14.7812 154.073 14.7812ZM154.073 16.0254C153.103 16.0254 152.405 16.6816 152.405 17.6934C152.405 18.7051 153.103 19.3477 154.073 19.334C155.017 19.3477 155.714 18.7051 155.728 17.6934C155.714 16.6816 155.017 16.0254 154.073 16.0254ZM172.64 11.9922V13.1816C172.626 14.7129 172.626 16.4355 172.147 19.0195L170.616 18.8555C171.095 16.4492 171.095 14.6924 171.108 13.209H163.726V11.9922H172.64ZM173.815 20.373V21.6172H162.55V20.373H166.706V16.0801H168.21V20.373H173.815ZM182.347 12.8262C182.347 14.3848 183.358 15.8477 185.259 16.4492L184.438 17.6387C183.105 17.1875 182.148 16.2852 181.622 15.1367C181.075 16.4492 180.077 17.4814 178.655 17.9805L177.835 16.791C179.831 16.0938 180.815 14.4531 180.829 12.6895V11.5137H182.347V12.8262ZM187.72 10.8574V13.8652H189.442V15.123H187.72V18.2539H186.202V10.8574H187.72ZM183.7 18.5273C186.257 18.5137 187.829 19.3887 187.843 20.8516C187.829 22.3418 186.257 23.2031 183.7 23.2031C181.116 23.2031 179.517 22.3418 179.517 20.8516C179.517 19.3887 181.116 18.5137 183.7 18.5273ZM183.7 19.7168C182.005 19.7168 181.034 20.127 181.034 20.8516C181.034 21.6172 182.005 22 183.7 22C185.396 22 186.339 21.6172 186.339 20.8516C186.339 20.127 185.396 19.7168 183.7 19.7168ZM193.927 14.0977C193.927 16.0938 194.624 18.1719 196.292 19.2246L195.458 20.3867C194.344 19.7168 193.619 18.5615 193.216 17.2012C192.765 18.6982 191.972 19.9629 190.81 20.6738L189.866 19.5391C191.657 18.4453 192.464 16.2715 192.464 14.166V11.9512H193.927V14.0977ZM200.735 10.8574V23.2168H199.272V10.8574H200.735ZM198.165 11.0762V22.6152H196.729V16.3672H194.966V15.1094H196.729V11.0762H198.165ZM212.903 10.8574V23.2168H211.454V10.8574H212.903ZM210.442 11.1172V22.6016H208.993V16.7773H207.626V15.4238H208.993V11.1172H210.442ZM207.94 12.3203V13.5508H207.065V18.8828C207.455 18.8486 207.824 18.8076 208.173 18.7598L208.269 19.8672C206.327 20.2637 203.784 20.3047 202.212 20.3047L202.034 19.0469L203.155 19.0332V13.5508H202.28V12.3203H207.94ZM204.522 19.0059L205.671 18.9648V13.5508H204.522V19.0059ZM224.552 10.8574V23.2305H223.021V10.8574H224.552ZM217.894 11.7598C219.753 11.7598 221.106 13.4551 221.12 16.1211C221.106 18.8145 219.753 20.4961 217.894 20.4961C216.021 20.4961 214.667 18.8145 214.667 16.1211C214.667 13.4551 216.021 11.7598 217.894 11.7598ZM217.894 13.127C216.841 13.127 216.13 14.2344 216.13 16.1211C216.13 18.0215 216.841 19.1289 217.894 19.1289C218.933 19.1289 219.644 18.0215 219.644 16.1211C219.644 14.2344 218.933 13.127 217.894 13.127ZM231.032 14.3711C231.032 16.3945 232.222 18.5273 234.218 19.3613L233.384 20.5645C231.921 19.9355 230.854 18.6367 230.294 17.0645C229.72 18.7598 228.64 20.1816 227.19 20.8652L226.315 19.6758C228.271 18.7734 229.487 16.4766 229.487 14.3711V13.332H226.767V12.0742H233.739V13.332H231.032V14.3711ZM236.651 10.8574V23.2168H235.12V10.8574H236.651ZM252.114 10.8574V23.2168H250.583V10.8574H252.114ZM248.423 12.1699C248.423 15.8477 247.001 18.9785 242.667 21.0293L241.874 19.8125C245.107 18.2744 246.611 16.1826 246.878 13.373H242.503V12.1699H248.423ZM261.644 11.8418V12.9629H254.329V11.8418H257.214V10.7891H258.731V11.8418H261.644ZM257.993 13.3184C259.798 13.3047 261.028 14.0293 261.028 15.1777C261.028 16.1484 260.126 16.7979 258.731 16.9688V17.625C259.777 17.5771 260.823 17.4883 261.808 17.3652L261.917 18.4043C259.265 18.8555 256.339 18.8965 254.151 18.8965L253.946 17.7207C254.931 17.7275 256.052 17.7207 257.214 17.6797V16.9551C255.812 16.791 254.931 16.1416 254.944 15.1777C254.931 14.0293 256.147 13.3047 257.993 13.3184ZM257.993 14.3438C257.022 14.3301 256.394 14.6309 256.407 15.1777C256.394 15.6836 257.022 15.9844 257.993 15.9707C258.937 15.9844 259.565 15.6836 259.579 15.1777C259.565 14.6309 258.937 14.3301 257.993 14.3438ZM264.2 10.8848V19.1973H262.669V10.8848H264.2ZM264.2 19.7031V23.2168H262.669V20.8926H255.696V19.7031H264.2ZM271.61 11.0488C274.427 11.0488 276.054 11.8008 276.067 13.168C276.054 14.5488 274.427 15.2871 271.61 15.3008C268.794 15.2871 267.153 14.5488 267.153 13.168C267.153 11.8008 268.794 11.0488 271.61 11.0488ZM271.61 12.1699C269.724 12.1699 268.739 12.5254 268.753 13.168C268.739 13.8516 269.724 14.166 271.61 14.166C273.524 14.166 274.495 13.8516 274.495 13.168C274.495 12.5254 273.524 12.1699 271.61 12.1699ZM277.257 15.957V17.1738H265.991V15.957H277.257ZM275.849 18.0078V21.0293H268.821V21.9453H276.19V23.1074H267.331V19.9492H274.358V19.1289H267.317V18.0078H275.849ZM286.089 13.8242C286.075 16.0938 287.265 18.3633 289.274 19.2246L288.372 20.4414C286.95 19.7852 285.904 18.4727 285.337 16.8594C284.77 18.6025 283.71 20.0244 282.206 20.7285L281.276 19.457C283.341 18.5684 284.544 16.2031 284.544 13.8242V11.8555H286.089V13.8242ZM291.694 10.8574V23.2305H290.163V10.8574H291.694ZM297.942 13.0039C297.942 14.5215 298.927 16.0254 300.868 16.668L300.103 17.8438C298.722 17.3857 297.737 16.4561 297.204 15.3008C296.65 16.5654 295.625 17.5703 294.183 18.0625L293.376 16.8867C295.372 16.2305 296.411 14.6309 296.411 13.0039V12.8535H293.8V11.6367H300.513V12.8535H297.942V13.0039ZM303.261 10.8574V13.9473H304.983V15.2188H303.261V18.3086H301.743V10.8574H303.261ZM303.261 18.8828V23.2168H301.743V20.0996H295.03V18.8828H303.261ZM311.642 12.8262V14.043H305.585V12.8262H307.882V11.2129H309.386V12.8262H311.642ZM308.634 14.6992C310.206 14.6992 311.327 15.8887 311.327 17.5703C311.327 19.2793 310.206 20.4824 308.634 20.4824C307.075 20.4824 305.927 19.2793 305.94 17.5703C305.927 15.8887 307.075 14.6992 308.634 14.6992ZM308.634 15.957C307.827 15.957 307.267 16.5996 307.28 17.5703C307.267 18.5684 307.827 19.1973 308.634 19.1836C309.427 19.1973 309.987 18.5684 309.987 17.5703C309.987 16.5996 309.427 15.957 308.634 15.957ZM316.235 10.8574V23.2168H314.786V17.1738H313.583V22.6562H312.161V11.1172H313.583V15.9434H314.786V10.8574H316.235ZM329.005 20.4824V21.7266H317.712V20.4824H322.579V18.0762H318.956V11.6777H320.474V13.7012H326.202V11.6777H327.72V18.0762H324.083V20.4824H329.005ZM320.474 16.8457H326.202V14.918H320.474V16.8457ZM333.667 14.0977C333.667 16.0938 334.364 18.1719 336.032 19.2246L335.198 20.3867C334.084 19.7168 333.359 18.5615 332.956 17.2012C332.505 18.6982 331.712 19.9629 330.55 20.6738L329.606 19.5391C331.397 18.4453 332.204 16.2715 332.204 14.166V11.9512H333.667V14.0977ZM340.476 10.8574V23.2168H339.013V10.8574H340.476ZM337.905 11.0762V22.6152H336.47V16.3672H334.706V15.1094H336.47V11.0762H337.905ZM353.204 20.4688V21.7129H341.911V20.4688H344.522V17.3379C343.538 16.7773 342.943 15.8955 342.95 14.7949C342.937 12.8262 344.878 11.5273 347.53 11.5273C350.196 11.5273 352.138 12.8262 352.138 14.7949C352.138 15.875 351.563 16.7432 350.606 17.3105V20.4688H353.204ZM347.53 12.7305C345.685 12.7305 344.427 13.5098 344.44 14.7949C344.427 16.0664 345.685 16.8594 347.53 16.8594C349.376 16.8594 350.647 16.0664 350.647 14.7949C350.647 13.5098 349.376 12.7305 347.53 12.7305ZM346.026 20.4688H349.062V17.8848C348.59 17.9941 348.077 18.0488 347.53 18.0488C346.997 18.0488 346.491 17.9941 346.026 17.8984V20.4688Z" fill="#A7A7A7"/>
<g opacity="0.5">
<rect width="278.885" height="442" transform="translate(48.5576 53)" fill="#E4E4E4"/>
<path d="M145.949 141.112V145.24H147.534V139.701H149.624V154.594H147.534V147.017H145.949V151.336H139.644V141.112H145.949ZM141.717 142.871V149.595H143.876V142.871H141.717ZM152.934 139.475V155.325H150.809V139.475H152.934ZM167.878 139.492V150.884H165.648V139.492H167.878ZM168.296 153.27V155.046H157.253V149.734H159.5V153.27H168.296ZM159.187 140.503C161.625 140.503 163.524 142.175 163.524 144.491C163.524 146.86 161.625 148.515 159.187 148.515C156.748 148.515 154.85 146.86 154.85 144.491C154.85 142.175 156.748 140.503 159.187 140.503ZM159.187 142.436C157.95 142.419 157.009 143.202 157.027 144.491C157.009 145.815 157.95 146.581 159.187 146.581C160.388 146.581 161.329 145.815 161.329 144.491C161.329 143.202 160.388 142.419 159.187 142.436ZM182.404 140.99C182.387 145.885 181.202 149.96 175.28 152.921L174.061 151.249C176.709 149.934 178.285 148.463 179.182 146.703L174.497 147.139L174.218 145.24L179.861 144.892C180.018 144.23 180.131 143.516 180.192 142.767H175.054V140.99H182.404ZM186.637 139.475V145.554H188.884V147.383H186.637V155.29H184.407V139.475H186.637ZM202.87 139.475V155.325H200.623V139.475H202.87ZM198.916 140.938V142.715H197.505V149.595C198.202 149.551 198.89 149.481 199.561 149.403L199.665 151.058C196.286 151.615 192.628 151.667 189.72 151.685L189.511 149.873L191.339 149.856V142.715H189.946V140.938H198.916ZM193.499 149.804L195.346 149.734V142.715H193.499V149.804ZM223.562 147.313V149.072H217.588V151.807H215.393V149.072H209.053V147.313H223.562ZM221.698 140.172V146.007H210.865V140.172H221.698ZM213.042 141.896V144.282H219.521V141.896H213.042ZM221.96 153.27V155.046H210.76V150.431H212.972V153.27H221.96ZM237.252 140.398V141.826C237.252 143.307 237.252 144.927 236.852 147.139H238.942V148.933H232.759V155.342H230.529V148.933H224.485V147.139H234.605C235.005 145.092 235.04 143.542 235.04 142.175H226.14V140.398H237.252Z" fill="#101010"/>
<path d="M145.54 118.929V121.133H146.822V118.121H147.535V125.959H146.822V121.75H145.54V124.116H142.31V118.929H145.54ZM143.013 119.527V123.518H144.837V119.527H143.013ZM149.236 117.941V126.387H148.514V117.941H149.236ZM157.378 117.95V124.126H156.636V117.95H157.378ZM157.644 125.579V126.206H151.924V123.499H152.665V125.579H157.644ZM152.817 118.539C154.081 118.539 155.031 119.394 155.031 120.61C155.031 121.845 154.081 122.691 152.817 122.691C151.554 122.691 150.604 121.845 150.604 120.61C150.604 119.394 151.554 118.539 152.817 118.539ZM152.817 119.195C151.962 119.195 151.326 119.784 151.335 120.61C151.326 121.456 151.962 122.035 152.817 122.035C153.653 122.035 154.299 121.456 154.299 120.61C154.299 119.784 153.653 119.195 152.817 119.195ZM165.586 118.71V119.337H162.375V121.085H165.396V121.693H162.375V123.736C163.895 123.736 164.964 123.674 166.232 123.461L166.318 124.078C164.997 124.297 163.885 124.344 162.289 124.354H161.624V118.71H165.586ZM167.79 117.941V121.342H169.206V121.978H167.79V126.387H167.049V117.941H167.79ZM176.626 117.941V126.406H175.875V117.941H176.626ZM172.132 118.596C173.386 118.606 174.288 119.746 174.288 121.541C174.288 123.337 173.386 124.477 172.132 124.477C170.868 124.477 169.975 123.337 169.975 121.541C169.975 119.746 170.868 118.606 172.132 118.596ZM172.132 119.261C171.286 119.271 170.697 120.164 170.697 121.541C170.697 122.919 171.286 123.812 172.132 123.812C172.977 123.812 173.566 122.919 173.566 121.541C173.566 120.164 172.977 119.271 172.132 119.261ZM184.853 120.658V121.199H179.086V118.159H184.806V118.701H179.837V119.394H184.578V119.917H179.837V120.658H184.853ZM185.765 121.845V122.444H178.079V121.845H185.765ZM184.777 123.09V124.914H179.761V125.731H185.034V126.292H179.02V124.382H184.046V123.641H179.001V123.09H184.777ZM193.717 117.941V126.387H192.995V117.941H193.717ZM192.016 118.121V125.959H191.304V121.855H190.221C190.14 123.499 189.442 124.525 188.397 124.525C187.295 124.525 186.582 123.385 186.582 121.589C186.582 119.793 187.295 118.653 188.397 118.653C189.423 118.653 190.116 119.646 190.211 121.237H191.304V118.121H192.016ZM188.397 119.356C187.713 119.356 187.276 120.211 187.285 121.589C187.276 122.957 187.713 123.822 188.397 123.812C189.081 123.822 189.518 122.957 189.518 121.589C189.518 120.211 189.081 119.356 188.397 119.356ZM204.548 117.941V126.387H203.835V121.959H202.591V125.95H201.907V118.131H202.591V121.342H203.835V117.941H204.548ZM200.804 118.976V119.594H198.382V123.66C199.546 123.655 200.353 123.613 201.289 123.423L201.355 124.05C200.339 124.259 199.474 124.297 198.182 124.297H197.641V118.976H200.804ZM212.338 117.95V120.734H213.611V121.361H212.338V124.278H211.597V117.95H212.338ZM210.789 118.986V119.594H205.754V118.986H207.901V117.95H208.642V118.986H210.789ZM208.272 120.059C209.478 120.059 210.295 120.677 210.305 121.636C210.295 122.587 209.478 123.195 208.272 123.195C207.056 123.195 206.229 122.587 206.239 121.636C206.229 120.677 207.056 120.059 208.272 120.059ZM208.272 120.648C207.474 120.648 206.942 121.038 206.951 121.636C206.942 122.235 207.474 122.615 208.272 122.606C209.06 122.615 209.592 122.235 209.602 121.636C209.592 121.038 209.06 120.648 208.272 120.648ZM212.728 125.579V126.206H207.056V123.774H207.787V125.579H212.728ZM223.587 117.941V122.311H222.836V120.116H220.955V119.499H222.836V117.941H223.587ZM223.587 122.739V124.753H218.865V125.674H223.9V126.273H218.133V124.183H222.846V123.337H218.114V122.739H223.587ZM219.463 119.014C219.454 120.126 220.328 121.133 221.563 121.541L221.164 122.121C220.228 121.788 219.482 121.123 219.112 120.268C218.751 121.233 217.986 121.969 216.984 122.33L216.575 121.731C217.848 121.313 218.722 120.249 218.732 119.014V118.216H219.463V119.014ZM231.995 117.941V122.948H231.244V121.617H229.268V122.34H225.392V118.587H229.268V119.318H231.244V117.941H231.995ZM226.133 119.195V121.731H228.536V119.195H226.133ZM229.192 123.195C230.95 123.195 232.023 123.774 232.023 124.791C232.023 125.798 230.95 126.368 229.192 126.368C227.434 126.368 226.361 125.798 226.361 124.791C226.361 123.774 227.434 123.195 229.192 123.195ZM229.192 123.774C227.9 123.784 227.092 124.154 227.102 124.791C227.092 125.399 227.9 125.779 229.192 125.779C230.484 125.779 231.282 125.399 231.282 124.791C231.282 124.154 230.484 123.784 229.192 123.774ZM229.268 120.99H231.244V119.936H229.268V120.99Z" fill="#101010"/>
<g filter="url(#filter0_d_31_66)">
<path fill-rule="evenodd" clip-rule="evenodd" d="M122.8 187H253.159C254.019 187 254.844 187.342 255.452 187.95C256.06 188.558 256.402 189.383 256.402 190.243V424.156C256.402 425.016 256.06 425.84 255.452 426.449C254.844 427.057 254.019 427.398 253.159 427.398H122.8C121.94 427.398 121.116 427.057 120.507 426.449C119.899 425.84 119.558 425.016 119.558 424.156V190.243C119.558 189.383 119.899 188.558 120.507 187.95C121.116 187.342 121.94 187 122.8 187Z" fill="#9C9C9C"/>
</g>
<path d="M167.976 378.998V379.876H164.013V378.998H165.44V378.227H166.566V378.998H167.976ZM166.007 380.124C167.036 380.124 167.763 380.727 167.772 381.596C167.763 382.429 167.036 383.023 166.007 383.023C164.997 383.023 164.261 382.429 164.261 381.596C164.261 380.727 164.997 380.124 166.007 380.124ZM166.007 380.966C165.564 380.966 165.272 381.179 165.272 381.596C165.272 381.977 165.564 382.19 166.007 382.19C166.451 382.19 166.743 381.977 166.752 381.596C166.743 381.179 166.451 380.966 166.007 380.966ZM170.99 378.182V383.227H169.917V381.232H169.297V383.183H168.224V378.307H169.297V380.31H169.917V378.182H170.99ZM170.99 383.591V386.241H169.864V384.495H165.413V383.591H170.99ZM178.659 378.182V382.731H177.524V378.182H178.659ZM178.659 383.103V386.153H173.251V383.103H178.659ZM174.368 383.998V385.248H177.551V383.998H174.368ZM174.997 379.255C174.989 380.239 175.583 381.17 176.886 381.578L176.336 382.438C175.414 382.168 174.776 381.609 174.412 380.886C174.044 381.671 173.388 382.292 172.426 382.589L171.877 381.702C173.224 381.294 173.818 380.266 173.818 379.255V378.475H174.997V379.255ZM184.759 380.7C184.759 381.844 185.353 383.147 186.638 383.75L186.009 384.601C185.149 384.216 184.55 383.453 184.209 382.553C183.863 383.524 183.225 384.344 182.312 384.743L181.691 383.865C183.003 383.289 183.633 381.915 183.642 380.7V380.39H181.975V379.486H183.633V378.351H184.768V379.486H186.408V380.39H184.759V380.7ZM188.207 378.174V381.303H189.395V382.252H188.207V386.241H187.073V378.174H188.207ZM196.488 378.174V382.323H195.362V381.516H193.873V382.092H190.034V378.519H191.169V379.459H192.756V378.519H193.873V379.202H195.362V378.174H196.488ZM196.488 382.624V384.779H192.259V385.266H196.727V386.153H191.124V383.954H195.362V383.493H191.115V382.624H196.488ZM191.169 381.206H192.756V380.319H191.169V381.206ZM193.873 380.665H195.362V380.044H193.873V380.665ZM204.334 378.174V382.837H203.208V380.957H201.932V380.035H203.208V378.174H204.334ZM204.334 383.174V386.153H198.908V383.174H204.334ZM200.043 384.06V385.248H203.226V384.06H200.043ZM202.189 378.581V379.495H200.584C200.602 380.412 201.174 381.392 202.437 381.809L201.878 382.704C200.983 382.407 200.367 381.822 200.017 381.09C199.658 381.897 199.015 382.54 198.066 382.846L197.49 381.959C198.793 381.543 199.4 380.514 199.432 379.495H197.809V378.581H202.189ZM210.505 379.007V385.426H209.166V380.275H209.131L207.659 381.197V380.018L209.246 379.007H210.505Z" fill="white"/>
<path d="M167.518 399.139V400.016H163.555V399.139H164.983V398.367H166.109V399.139H167.518ZM165.55 400.265C166.579 400.265 167.306 400.868 167.315 401.736C167.306 402.57 166.579 403.164 165.55 403.164C164.54 403.164 163.804 402.57 163.804 401.736C163.804 400.868 164.54 400.265 165.55 400.265ZM165.55 401.107C165.107 401.107 164.814 401.32 164.814 401.736C164.814 402.118 165.107 402.33 165.55 402.33C165.994 402.33 166.286 402.118 166.295 401.736C166.286 401.32 165.994 401.107 165.55 401.107ZM170.533 398.323V403.368H169.46V401.373H168.839V403.323H167.767V398.447H168.839V400.451H169.46V398.323H170.533ZM170.533 403.731V406.382H169.407V404.635H164.956V403.731H170.533ZM178.202 398.323V402.871H177.067V398.323H178.202ZM178.202 403.244V406.293H172.794V403.244H178.202ZM173.911 404.139V405.389H177.094V404.139H173.911ZM174.54 399.396C174.531 400.38 175.125 401.311 176.429 401.719L175.879 402.579C174.957 402.308 174.319 401.75 173.955 401.027C173.587 401.812 172.931 402.432 171.969 402.729L171.419 401.843C172.767 401.435 173.361 400.407 173.361 399.396V398.616H174.54V399.396ZM184.301 400.841C184.301 401.985 184.895 403.288 186.181 403.891L185.551 404.742C184.692 404.356 184.093 403.594 183.752 402.694C183.406 403.665 182.768 404.485 181.854 404.884L181.234 404.006C182.546 403.43 183.175 402.056 183.184 400.841V400.531H181.518V399.626H183.175V398.492H184.31V399.626H185.95V400.531H184.301V400.841ZM187.75 398.314V401.444H188.938V402.392H187.75V406.382H186.615V398.314H187.75ZM196.031 398.314V402.463H194.905V401.657H193.415V402.233H189.577V398.66H190.711V399.6H192.298V398.66H193.415V399.343H194.905V398.314H196.031ZM196.031 402.765V404.919H191.802V405.407H196.27V406.293H190.667V404.095H194.905V403.634H190.658V402.765H196.031ZM190.711 401.346H192.298V400.46H190.711V401.346ZM193.415 400.805H194.905V400.185H193.415V400.805ZM203.877 398.314V402.978H202.751V401.098H201.474V400.176H202.751V398.314H203.877ZM203.877 403.314V406.293H198.451V403.314H203.877ZM199.586 404.201V405.389H202.769V404.201H199.586ZM201.732 398.722V399.635H200.127C200.145 400.553 200.716 401.532 201.98 401.949L201.421 402.845C200.526 402.548 199.91 401.962 199.559 401.231C199.2 402.038 198.558 402.681 197.609 402.986L197.033 402.1C198.336 401.683 198.943 400.655 198.974 399.635H197.352V398.722H201.732ZM207.282 405.566L207.273 404.6L209.578 402.481C210.181 401.905 210.5 401.55 210.5 401.045C210.5 400.477 210.065 400.123 209.48 400.123C208.877 400.123 208.487 400.504 208.487 401.116H207.219C207.211 399.857 208.142 399.059 209.498 399.059C210.872 399.059 211.785 399.839 211.785 400.956C211.785 401.683 211.431 402.286 210.11 403.483L209.134 404.432V404.467H211.874V405.566H207.282Z" fill="white"/>
<rect x="126.363" y="230.02" width="123.228" height="131.66" fill="#C4C4C4"/>
<path d="M180.656 205.831V218.799H178.932V205.831H180.656ZM178.005 206.045V218.201H176.295V211.745H174.585V210.277H176.295V206.045H178.005ZM173.545 209.308C173.545 211.46 174.214 213.641 176.11 214.724L175.041 216.063C173.887 215.379 173.124 214.218 172.69 212.828C172.241 214.339 171.457 215.621 170.267 216.348L169.17 215.009C171.079 213.84 171.792 211.503 171.792 209.308V208.61H169.668V207.156H175.511V208.61H173.545V209.308ZM193.881 211.902V213.341H188.864V214.453H192.47V218.657H183.421V214.453H187.054V213.341H182.052V211.902H193.881ZM192.826 206.187V207.641H191.13V209.622H192.741V211.075H183.178V209.622H184.774V207.641H183.093V206.187H192.826ZM185.216 215.864V217.203H190.688V215.864H185.216ZM186.598 209.622H189.306V207.641H186.598V209.622ZM205.595 205.831V213.427H203.785V211.774H201.362V212.714H195.206V206.786H201.362V207.726H203.785V205.831H205.595ZM197.016 208.225V211.275H199.581V208.225H197.016ZM201.163 213.769C203.927 213.769 205.623 214.695 205.637 216.291C205.623 217.887 203.927 218.799 201.163 218.799C198.398 218.799 196.702 217.887 196.702 216.291C196.702 214.695 198.398 213.769 201.163 213.769ZM201.163 215.151C199.438 215.151 198.512 215.522 198.512 216.291C198.512 217.032 199.438 217.417 201.163 217.417C202.887 217.417 203.828 217.032 203.828 216.291C203.828 215.522 202.887 215.151 201.163 215.151ZM201.362 210.306H203.785V209.166H201.362V210.306Z" fill="white"/>
<path d="M169.447 290.231V301.099H168.002V290.231H169.447ZM167.225 290.41V300.597H165.792V295.187H164.359V293.957H165.792V290.41H167.225ZM163.487 293.145C163.487 294.948 164.049 296.775 165.637 297.683L164.741 298.806C163.774 298.232 163.135 297.259 162.771 296.095C162.395 297.361 161.738 298.436 160.74 299.045L159.821 297.922C161.421 296.943 162.018 294.984 162.018 293.145V292.56H160.239V291.342H165.135V292.56H163.487V293.145ZM180.529 295.318V296.525H176.326V297.456H179.347V300.979H171.763V297.456H174.809V296.525H170.617V295.318H180.529ZM179.646 290.529V291.748H178.224V293.408H179.574V294.626H171.56V293.408H172.898V291.748H171.489V290.529H179.646ZM173.268 298.639V299.761H177.854V298.639H173.268ZM174.427 293.408H176.696V291.748H174.427V293.408ZM193.105 290.231V301.123H191.564V290.231H193.105ZM187.205 290.995C188.841 290.995 190.06 292.5 190.06 294.865C190.06 297.253 188.841 298.746 187.205 298.746C185.533 298.746 184.315 297.253 184.327 294.865C184.315 292.5 185.533 290.995 187.205 290.995ZM187.205 292.369C186.357 292.369 185.796 293.252 185.796 294.865C185.796 296.489 186.357 297.361 187.205 297.361C188.029 297.361 188.591 296.489 188.591 294.865C188.591 293.252 188.029 292.369 187.205 292.369ZM200.366 291.21V298.507H195.111V291.21H200.366ZM196.64 292.404V297.301H198.885V292.404H196.64ZM203.674 290.231V301.123H202.134V290.231H203.674ZM209.359 293.193C209.359 294.948 210.255 296.823 212.082 297.588L211.258 298.782C209.974 298.238 209.09 297.158 208.606 295.832C208.111 297.271 207.209 298.465 205.931 299.057L205.06 297.85C206.863 297.05 207.794 295.032 207.794 293.193V292.524H205.489V291.282H211.628V292.524H209.359V293.193ZM214.243 290.231V301.099H212.703V290.231H214.243Z" fill="#777777"/>
</g>
<defs>
<filter id="filter0_d_31_66" x="117.507" y="187" width="140.945" height="245.043" filterUnits="userSpaceOnUse" color-interpolation-filters="sRGB">
<feFlood flood-opacity="0" result="BackgroundImageFix"/>
<feColorMatrix in="SourceAlpha" type="matrix" values="0 0 0 0 0 0 0 0 0 0 0 0 0 0 0 0 0 0 127 0" result="hardAlpha"/>
<feOffset dy="2.59428"/>
<feGaussianBlur stdDeviation="1.02539"/>
<feColorMatrix type="matrix" values="0 0 0 0 0.192157 0 0 0 0 0.192157 0 0 0 0 0.192157 0 0 0 0.3 0"/>
<feBlend mode="normal" in2="BackgroundImageFix" result="effect1_dropShadow_31_66"/>
<feBlend mode="normal" in="SourceGraphic" in2="effect1_dropShadow_31_66" result="shape"/>
</filter>
</defs>
</svg>
